<svg xmlns="http://www.w3.org/2000/svg" width="30.574" height="30.584" viewBox="0 0 30.574 30.584">
  <path id="Path_155" data-name="Path 155" d="M42.435,28.2a2.121,2.121,0,0,0-.677,1.084c-.181.587-1.174,3.477-2.439,7.09h8.445c-1.265-3.613-2.258-6.5-2.439-7.09a2.121,2.121,0,0,0-.677-1.084,1.681,1.681,0,0,0-1.129-.316A1.543,1.543,0,0,0,42.435,28.2ZM29.971,36.377h5.735c1.4-4.11,2.619-7.542,2.8-8.174a5.432,5.432,0,0,1,1.852-2.71,5.128,5.128,0,0,1,3.116-.994,4.852,4.852,0,0,1,3.116.994,5.432,5.432,0,0,1,1.852,2.71c.226.632,1.4,4.019,2.8,8.174h5.826a1.716,1.716,0,1,1,0,3.432h-27.1A1.677,1.677,0,0,1,28.3,38.094,1.706,1.706,0,0,1,29.971,36.377Zm0,6.774A1.677,1.677,0,0,0,28.3,44.868a1.706,1.706,0,0,0,1.671,1.716h2.258l-.9,2.619-.9,2.619-.361.994a1.7,1.7,0,0,0,3.206,1.129l.361-.994.9-2.619c.361-1.084.813-2.348,1.31-3.748H51.287c.452,1.355.9,2.665,1.31,3.748l.9,2.619.361.994a1.7,1.7,0,0,0,3.206-1.129h0l-.361-.994L55.8,49.2l-.9-2.619h2.258a1.716,1.716,0,1,0,0-3.432H29.971ZM55.4,53.313l1.581-.542Zm0,0-1.581.542Zm-23.71,0,1.581.542Zm0,0-1.581-.542Z" transform="translate(-28.3 -24.5)" fill="red" fill-rule="evenodd"/>
</svg>

