<svg width="56" height="56" viewBox="0 0 56 56" fill="none" xmlns="http://www.w3.org/2000/svg">
<circle cx="28" cy="28.0001" r="27.0968" fill="#F2E3EE"/>
<circle cx="28" cy="28" r="28" fill="#D9327C"/>
<path fill-rule="evenodd" clip-rule="evenodd" d="M26.9165 14.7687C26.6907 14.9493 26.4197 15.2654 26.2391 15.8525C26.0584 16.4396 25.0649 19.33 23.8004 22.9429H32.2455C30.981 19.33 29.9874 16.4396 29.8068 15.8525C29.6262 15.2654 29.3552 14.9493 29.1294 14.7687C28.9036 14.588 28.5875 14.4525 28.0004 14.4525C27.4133 14.4525 27.1423 14.588 26.9165 14.7687H26.9165ZM14.452 22.9429H20.1875C21.5875 18.8332 22.8068 15.4009 22.9875 14.7687C23.3488 13.6848 23.9358 12.7364 24.8391 12.059C25.7423 11.3816 26.8262 11.0654 27.9552 11.0654C29.0842 11.0654 30.1681 11.3364 31.0713 12.059C31.9746 12.7364 32.5617 13.6848 32.9229 14.7687C33.1488 15.4009 34.3229 18.788 35.7229 22.9429H41.5488C42.4971 22.9429 43.2649 23.7106 43.2649 24.659C43.2649 25.6074 42.4971 26.3751 41.5488 26.3751H36.9875H33.4197H22.6262H19.0584H14.452C13.5036 26.3751 12.781 25.6074 12.781 24.659C12.781 23.7106 13.5487 22.9429 14.452 22.9429ZM14.452 29.7171C13.5036 29.7171 12.781 30.4848 12.781 31.4332C12.781 32.3816 13.5487 33.1493 14.452 33.1493H16.71L15.8068 35.7687L14.9036 38.388L14.5423 39.3816C14.2262 40.2848 14.7229 41.2332 15.581 41.5493C16.4842 41.8654 17.4326 41.3687 17.7487 40.5106L18.11 39.5171L19.0133 36.8977C19.3745 35.8138 19.8262 34.5493 20.3229 33.1493H35.7681C36.2197 34.5041 36.6713 35.8138 37.0778 36.8977L37.981 39.5171L38.3423 40.5106C38.6584 41.4138 39.6068 41.8654 40.51 41.5493C41.4133 41.2332 41.8649 40.2848 41.5487 39.3816L41.1874 38.388L40.2842 35.7687L39.381 33.1493H41.6391C42.5875 33.1493 43.3552 32.3816 43.3552 31.4332C43.3552 30.4848 42.5874 29.7171 41.6391 29.7171H38.2068H34.6391H21.5423H17.9745H14.452ZM39.8778 39.8783L41.4584 39.3364C41.4584 39.3364 41.4584 39.3364 39.8778 39.8783ZM39.8778 39.8783C38.2971 40.4203 38.2971 40.4203 38.2971 40.4203L39.8778 39.8783ZM16.1681 39.8783L17.7487 40.4203C17.7487 40.4203 17.7487 40.4203 16.1681 39.8783ZM16.1681 39.8783C14.5875 39.3364 14.5875 39.3364 14.5875 39.3364L16.1681 39.8783Z" fill="white"/>
</svg>
