<svg width="56" height="56" viewBox="0 0 56 56" fill="none" xmlns="http://www.w3.org/2000/svg">
<circle cx="28" cy="28" r="28" fill="#FFD800"/>
<path fill-rule="evenodd" clip-rule="evenodd" d="M41.4452 22.5505C41.545 22.4508 41.7428 22.4508 41.937 22.4508C44.8892 22.4508 47.25 24.9498 47.25 27.951C47.25 30.751 45.185 32.9508 42.5285 33.4495H41.937C40.9535 33.4495 39.97 33.1503 39.0845 32.6497C38.7971 32.4474 38.4524 32.3425 38.101 32.3505C37.7073 32.3505 37.3135 32.4503 37.0195 32.6497C36.33 33.0505 36.036 33.7505 36.036 34.5503V35.4497C35.8222 37.9962 33.8497 40.0426 31.3127 40.3498H30.723C29.7395 40.3498 28.756 40.0505 27.8705 39.55C27.4768 39.3505 27.1827 39.2507 26.789 39.2507C26.3953 39.2507 26.0015 39.3505 25.7057 39.55C25.018 39.9508 24.7222 40.6508 24.7222 41.4505V42.35C24.5263 44.9505 22.4595 46.9507 19.9028 47.25H19.411C16.4588 47.25 14.098 44.7492 14.098 41.7497C14.196 38.9498 16.163 36.6503 18.8195 36.3493H19.411C20.3945 36.3493 21.378 36.6502 22.2635 37.1507C22.5509 37.3531 22.8956 37.458 23.247 37.45C23.6407 37.45 24.0345 37.3503 24.3285 37.1507C25.018 36.75 25.312 36.05 25.312 35.2503C25.116 32.3505 27.1827 29.75 30.0352 29.4508H30.625C31.6085 29.4508 32.592 29.75 33.4775 30.2505C33.8713 30.45 34.167 30.5498 34.5607 30.5498C34.9527 30.5498 35.3483 30.45 35.6423 30.2505C36.33 29.8498 36.6257 29.1497 36.6257 28.35C36.4298 25.4503 38.5928 22.8498 41.4452 22.5505ZM30.135 15.6502C30.331 15.5505 30.4307 15.5505 30.7248 15.5505C33.677 15.5505 36.0378 18.0495 36.0378 21.0507C35.9398 23.8507 33.9728 26.1502 31.3145 26.4495H30.7248C29.7413 26.4495 28.7578 26.1502 27.8723 25.6497C27.5849 25.4474 27.2402 25.3425 26.8888 25.3505C26.495 25.3505 26.1012 25.4503 25.8073 25.6497C25.1178 26.0505 24.822 26.7505 24.822 27.5503V28.4497C24.626 31.0485 22.561 33.0487 20.0025 33.3498H19.5108C16.5603 33.3498 14.1978 30.8507 14.1978 27.8495C14.1978 25.151 16.1665 22.9495 18.8212 22.5505H19.4128C20.3963 22.5505 21.3798 22.8497 22.2653 23.3503C22.5526 23.5526 22.8973 23.6575 23.2487 23.6495C23.6425 23.6495 24.0363 23.5497 24.3302 23.3503C25.0197 22.9495 25.3138 22.2495 25.3138 21.4497C25.1178 18.55 27.2825 15.9495 30.135 15.6502ZM19.313 8.75C22.246 8.75 24.6243 11.1685 24.6243 14.1505C24.6243 17.1325 22.2443 19.5492 19.313 19.5492C16.3783 19.5492 14 17.1325 14 14.1505C14 11.1685 16.38 8.75 19.313 8.75Z" fill="white"/>
</svg>
