<svg width="40" height="40" viewBox="0 0 40 40" fill="none" xmlns="http://www.w3.org/2000/svg">
<path d="M0 11.82V28.16C0 35.24 4.54201 40 11.32 40H28.66C35.44 40 40 35.24 40 28.16V11.82C40 4.76 35.44 0 28.66 0H11.32C4.542 0 0 4.76001 0 11.82Z" fill="#B5507F" fill-opacity="0.101961"/>
<g clip-path="url(#clip0)">
<path d="M21.9174 12.3736V24.0035L26.5667 19.4614C27.1337 18.9303 28.0219 18.9303 28.5889 19.4614C29.137 19.9925 29.137 20.8716 28.5889 21.4028L21.5017 28.3074C20.9725 28.8202 20.0275 28.8202 19.4983 28.3074L12.4111 21.4028C11.863 20.8716 11.863 19.9925 12.4111 19.4614C12.6946 19.205 13.0555 19.0585 13.4127 19.0585C13.7718 19.0585 14.1498 19.205 14.4144 19.4614L19.0826 24.0035V12.3736C19.0826 11.6044 19.7062 11 20.5 11C21.2749 11 21.9174 11.6044 21.9174 12.3736Z" fill="#B5507F"/>
</g>
<defs>
<clipPath id="clip0">
<rect width="17" height="17.692" fill="white" transform="translate(12 11)"/>
</clipPath>
</defs>
</svg>
