<svg id="Iconly_Bold_Notification" data-name="Iconly/Bold/Notification" xmlns="http://www.w3.org/2000/svg" width="32" height="32" viewBox="0 0 32 32">
  <g id="Notification" transform="translate(4.667 2.667)">
    <path id="Notification-2" data-name="Notification" d="M10.644,26.622a4.826,4.826,0,0,1-2.285-.977,2.068,2.068,0,0,1-.928-1.564c0-.672.616-.979,1.186-1.111a34.606,34.606,0,0,1,5.4,0c.57.132,1.186.439,1.186,1.111a2.071,2.071,0,0,1-.926,1.565,4.847,4.847,0,0,1-2.284.976,5.327,5.327,0,0,1-.682.045A4.889,4.889,0,0,1,10.644,26.622ZM5.018,21a6.046,6.046,0,0,1-3.866-1.884A4.82,4.82,0,0,1,0,15.941a4.491,4.491,0,0,1,.974-3.08,5.063,5.063,0,0,0,1.417-3.8V8.494A7.5,7.5,0,0,1,4.1,3.349,9.431,9.431,0,0,1,11.274,0h.12a9.388,9.388,0,0,1,7.289,3.5,7.394,7.394,0,0,1,1.594,4.994v.568a5.185,5.185,0,0,0,1.416,3.8,4.485,4.485,0,0,1,.974,3.08,4.818,4.818,0,0,1-1.151,3.172A6.052,6.052,0,0,1,17.65,21c-2.1.178-4.192.329-6.316.329A55.585,55.585,0,0,1,5.018,21Z" fill="#8a9ab9"/>
  </g>
</svg>
