    <svg xmlns="http://www.w3.org/2000/svg" width="59.89" height="59.89" viewBox="0 0 59.89 59.89">
    <path id="Path_52" data-name="Path 52" d="M43.351,473.121V463.87H16.819v.418q0,9.158,0,18.314c0,.56,0,.562.576.562H35.151c-1.34-2.648-1.333-5.2.412-7.55,1.959-2.635,4.649-3.327,7.788-2.493m-7.648-6.6h4.344v4.321H35.7Zm-15.543,0h4.314v4.333H20.16Zm4.317,12.414H20.144v-4.347h4.333Zm7.78-.005H27.931v-4.352h4.326Zm0-8.075H27.941v-4.334h4.318Z" transform="translate(0 -436.683)" fill="#fff"/>
    <path id="Path_53" data-name="Path 53" d="M39.766,459.007a2,2,0,0,0-.146-2.97c0,.316,0,.557,0,.8a1.286,1.286,0,0,1-2.572.031c-.007-.25,0-.5,0-.784a1.926,1.926,0,0,0-.252,2.8,2.013,2.013,0,0,0,2.971.12" transform="translate(0 -436.683)" fill="#fff"/>
    <path id="Path_54" data-name="Path 54" d="M31.543,459.019a1.976,1.976,0,0,0-.158-3.009c0,.336.007.6,0,.868a1.284,1.284,0,0,1-2.567.016c-.009-.25,0-.5,0-.789A1.947,1.947,0,0,0,28.6,458.9a2.01,2.01,0,0,0,2.943.123" transform="translate(0 -436.683)" fill="#fff"/>
    <path id="Path_55" data-name="Path 55" d="M21.983,459.6a2.053,2.053,0,0,0,1.846-1.539,1.817,1.817,0,0,0-.679-1.964c0,.287.01.553,0,.817a1.285,1.285,0,0,1-2.568-.049c0-.252,0-.505,0-.83a1.968,1.968,0,0,0-.6,2.292,2.041,2.041,0,0,0,2,1.273" transform="translate(0 -436.683)" fill="#fff"/>
    <path id="Path_56" data-name="Path 56" d="M29.945,436.683a29.945,29.945,0,1,0,29.946,29.946,29.945,29.945,0,0,0-29.946-29.946m12.289,49.76a6.688,6.688,0,0,1-5.241-1.277,1.3,1.3,0,0,0-.834-.28q-9.471.014-18.941.007a1.925,1.925,0,0,1-2.125-2.114q0-12.836,0-25.67c0-.613,0-1.226,0-1.839a1.886,1.886,0,0,1,1.919-1.9c1.042,0,2.084,0,3.127,0h.443c0-.79,0-1.512,0-2.234a1.226,1.226,0,0,1,1.283-1.263,1.244,1.244,0,0,1,1.282,1.273c.01.71.008,1.421.012,2.132,0,.011.01.022.03.062h5.622c0-.749-.007-1.481,0-2.214a1.274,1.274,0,0,1,1.894-1.111,1.216,1.216,0,0,1,.674,1.138c0,.721,0,1.442,0,2.19h5.662V452.4c0-.417-.005-.834,0-1.251a1.286,1.286,0,1,1,2.572.008c0,.72,0,1.44,0,2.188.166.008.3.019.427.019,1.03,0,2.06,0,3.09,0a1.877,1.877,0,0,1,1.954,1.94q0,6.327-.013,12.652,0,2.9.023,5.809a.656.656,0,0,0,.216.449,6.735,6.735,0,0,1,2.665,5.379,6.829,6.829,0,0,1-5.748,6.848" transform="translate(0 -436.683)" fill="#fff"/>
    <path id="Path_57" data-name="Path 57" d="M41.1,474.513A5.149,5.149,0,1,0,46.25,479.8a5.167,5.167,0,0,0-5.152-5.292m3.377,6.908a.383.383,0,0,1-.558.187c-1.012-.518-2.025-1.036-3.023-1.582a.621.621,0,0,1-.213-.457c-.028-.476-.01-.954-.01-1.432s0-.955,0-1.432c0-.294.135-.475.433-.477s.433.192.433.479c0,.771.013,1.543,0,2.314a.493.493,0,0,0,.314.537c.769.375,1.522.783,2.28,1.179.065.035.128.073.191.111a.4.4,0,0,1,.157.573" transform="translate(0 -436.683)" fill="#fff"/>
</svg>