<svg width="24" height="28" viewBox="0 0 24 28" fill="none" xmlns="http://www.w3.org/2000/svg">
<path fill-rule="evenodd" clip-rule="evenodd" d="M6.86881 27.3334H6.85454C4.80243 27.3333 3.07859 26.6965 1.86937 25.4918C0.658197 24.2851 0.0167572 22.5612 0.0144072 20.5066L7.217e-06 9.40419C-0.00232278 7.5215 0.559567 5.90623 1.62496 4.73304C2.67729 3.57423 4.19307 2.87364 6.00841 2.70699L6.00721 1.70739C6.00662 1.42154 6.1107 1.1595 6.30028 0.969522C6.48648 0.782952 6.74165 0.680192 7.01881 0.680192C7.59638 0.680192 8.03282 1.12076 8.03401 1.70499L8.03521 2.63859L15.8556 2.62779L15.8544 1.69419C15.8532 1.40942 15.9564 1.14812 16.1449 0.958482C16.3311 0.771082 16.5872 0.667562 16.866 0.666992C17.4436 0.666992 17.88 1.10756 17.8812 1.69179L17.8824 2.69139C19.7004 2.83392 21.2319 3.52004 22.3101 4.67424C23.4045 5.84575 23.9839 7.45229 23.9856 9.32019L24 20.5546C24.0048 24.7218 21.3848 27.3142 17.1624 27.3202L6.86881 27.3334ZM17.3904 19.5898C16.7824 19.6042 16.2984 20.1135 16.3116 20.725C16.3128 21.3358 16.8043 21.8435 17.4072 21.8566C18.0238 21.8554 18.5244 21.3462 18.5232 20.7214C18.5232 20.0974 18.021 19.5898 17.4036 19.5898H17.3904ZM6.55561 19.5897L6.55566 19.591C5.95015 19.6174 5.47679 20.1213 5.47801 20.7382C5.5049 21.3357 5.97981 21.8038 6.55917 21.8038C6.5763 21.8038 6.5935 21.8034 6.61081 21.8026C6.89962 21.7898 7.16693 21.6642 7.3635 21.449C7.56154 21.2323 7.66329 20.9505 7.65001 20.6554C7.63688 20.0585 7.15716 19.591 6.55789 19.591L6.55561 19.5897ZM11.9796 19.5825L11.9797 19.5838C11.3754 19.6125 10.902 20.1169 10.902 20.7322C10.9284 21.3297 11.405 21.7978 11.9868 21.7978C12.0024 21.7978 12.0192 21.7978 12.0348 21.7966C12.635 21.7686 13.1012 21.2535 13.074 20.6482C13.0608 20.0513 12.5811 19.5838 11.9819 19.5838L11.9796 19.5825ZM6.54961 14.7921L6.54966 14.7934C5.94415 14.8198 5.47079 15.3237 5.47201 15.9406C5.49732 16.5381 5.97276 17.0062 6.55441 17.0062C6.57121 17.0062 6.58921 17.0062 6.60601 17.005C6.89424 16.9922 7.16096 16.8666 7.35706 16.6514C7.55461 16.4347 7.65609 16.1529 7.64281 15.8578C7.62968 15.2609 7.15049 14.7934 6.5519 14.7934L6.54961 14.7921ZM11.9748 14.7453L11.9749 14.7466C11.3687 14.773 10.8948 15.2769 10.896 15.8938C10.9212 16.492 11.3983 16.9606 11.982 16.9606C11.9976 16.9606 12.0144 16.9606 12.03 16.9594C12.6284 16.9303 13.094 16.4151 13.068 15.811C13.0536 15.2141 12.5744 14.7466 11.9771 14.7466L11.9748 14.7453ZM17.402 14.7538L17.3976 14.7538C16.7921 14.767 16.3188 15.2583 16.32 15.8722V15.8878C16.333 16.4846 16.8137 16.9522 17.4144 16.9522H17.4396C18.033 16.9378 18.5052 16.4285 18.492 15.817C18.464 15.2208 17.9852 14.7537 17.402 14.7538ZM6.01082 4.74459C3.3637 5.01066 2.02329 6.57756 2.02681 9.40179L2.02921 9.81579L21.96 9.78939V9.32259C21.9034 6.50558 20.5323 4.96046 17.8848 4.73019L17.886 5.75619C17.886 6.33219 17.4417 6.78339 16.8744 6.78339C16.5937 6.7834 16.3357 6.67762 16.148 6.48554C15.9618 6.29495 15.8592 6.03678 15.8592 5.75859L15.858 4.67979L8.03761 4.69059L8.04001 5.76819C8.04001 6.35379 7.6046 6.79539 7.02721 6.79539C6.74638 6.7954 6.48841 6.68979 6.30082 6.49799C6.11458 6.30758 6.01201 6.04924 6.01201 5.77059L6.01081 4.74459H6.01082Z" fill="url(#paint0_linear)"/>
<defs>
<linearGradient id="paint0_linear" x1="0" y1="27.3334" x2="24" y2="27.3334" gradientUnits="userSpaceOnUse">
<stop stop-color="#4D165A"/>
<stop offset="0.677811" stop-color="#B5507F"/>
<stop offset="1" stop-color="#DD7F79"/>
</linearGradient>
</defs>
</svg>
