<svg width="32" height="32" viewBox="0 0 32 32" fill="none" xmlns="http://www.w3.org/2000/svg">
<path fill-rule="evenodd" clip-rule="evenodd" d="M16 2C8.272 2 2 8.272 2 16C2 23.728 8.272 30 16 30C23.728 30 30 23.728 30 16C30 8.272 23.728 2 16 2ZM21.6 17.4H17.4V21.6C17.4 22.37 16.77 23 16 23C15.23 23 14.6 22.37 14.6 21.6V17.4H10.4C9.63 17.4 9 16.77 9 16C9 15.23 9.63 14.6 10.4 14.6H14.6V10.4C14.6 9.63 15.23 9 16 9C16.77 9 17.4 9.63 17.4 10.4V14.6H21.6C22.37 14.6 23 15.23 23 16C23 16.77 22.37 17.4 21.6 17.4Z" fill="url(#paint0_linear)"/>
<defs>
<linearGradient id="paint0_linear" x1="2" y1="30" x2="30" y2="30" gradientUnits="userSpaceOnUse">
<stop stop-color="#4D165A"/>
<stop offset="0.677811" stop-color="#B5507F"/>
<stop offset="1" stop-color="#DD7F79"/>
</linearGradient>
</defs>
</svg>
