<svg xmlns="http://www.w3.org/2000/svg" width="59.89" height="59.89" viewBox="0 0 59.89 59.89">
    <path id="Path_58" data-name="Path 58" d="M41.5,348.535a3.4,3.4,0,0,0-4.84.148q-2.531,2.5-5.028,5.032a13.408,13.408,0,0,0-.889,1.155c3.32-1.01,4.458,1.24,5.835,3.421,1.66-1.7,3.283-3.325,4.87-4.987a3.36,3.36,0,0,0,.052-4.769" transform="translate(0.001 -327.512)" fill="#fff"/>
    <path id="Path_59" data-name="Path 59" d="M19.924,369.992a3.418,3.418,0,0,0,4.927-.122q2.547-2.49,5.052-5.022a11.651,11.651,0,0,0,.86-1.137c-3.267.971-4.429-1.19-5.86-3.505-1.638,1.707-3.18,3.327-4.736,4.933a3.443,3.443,0,0,0-.243,4.853" transform="translate(0.001 -327.512)" fill="#fff"/>
    <path id="Path_60" data-name="Path 60" d="M31.806,356.794c-.266.046-.569.713-.583,1.11-.01.324.358.683.6.99a5.271,5.271,0,0,1-.11,6.976c-1.85,1.978-3.773,3.891-5.719,5.775a4.935,4.935,0,0,1-4.325,1.4,5.126,5.126,0,0,1-4.408-3.728,5.186,5.186,0,0,1,1.434-5.508q2.477-2.49,4.953-4.982c.569-.57.8-1.221.182-1.841-.595-.6-1.208-.338-1.745.2-1.791,1.8-3.657,3.538-5.366,5.418a7.156,7.156,0,0,0-1.351,8.188,7.4,7.4,0,0,0,6.7,4.567,7.89,7.89,0,0,0,5.6-2.218q1.724-1.682,3.407-3.4a30.86,30.86,0,0,0,2.81-2.995,7.481,7.481,0,0,0-.59-9.567,1.923,1.923,0,0,0-1.491-.382" transform="translate(0.001 -327.512)" fill="#fff"/>
    <path id="Path_61" data-name="Path 61" d="M42.321,343.93a7.193,7.193,0,0,0-8.212,1.278c-2.115,1.9-4.108,3.942-6.04,6.028a7.622,7.622,0,0,0,.115,10.157c.2.21.5.507.715.476a2.181,2.181,0,0,0,1.265-.522c.466-.523.076-1.036-.308-1.5a5.24,5.24,0,0,1-.064-7.121q2.854-3.033,5.9-5.886a4.914,4.914,0,0,1,5.053-1.065,5.319,5.319,0,0,1,2.327,8.748c-1.714,1.833-3.536,3.564-5.305,5.346a1.142,1.142,0,0,0-.1,1.767,1.1,1.1,0,0,0,1.684-.13c1.867-1.873,3.764-3.717,5.587-5.632a7.574,7.574,0,0,0,1.927-5.193,7.48,7.48,0,0,0-4.538-6.751" transform="translate(0.001 -327.512)" fill="#fff"/>
    <path id="Path_62" data-name="Path 62" d="M29.945,327.512A29.946,29.946,0,1,0,59.89,357.458a29.947,29.947,0,0,0-29.945-29.946m-16.13,19.6c1.236.01,2.473,0,3.857,0,0-1.266.013-2.49-.005-3.713-.01-.723.157-1.3,1.009-1.3s1.018.58,1.008,1.3c-.018,1.2,0,2.4,0,3.709,1.306,0,2.533.012,3.76-.005.689-.01,1.225.176,1.25.958.026.834-.509,1.068-1.253,1.057-1.2-.017-2.405,0-3.757,0,0,1.232-.014,2.422,0,3.612.011.738-.092,1.4-1.014,1.4s-1.014-.672-1-1.4c.018-1.164.005-2.329.005-3.6-1.392,0-2.629-.006-3.866,0-.665.005-1.124-.247-1.145-.961-.023-.766.433-1.056,1.154-1.05m32.619,10.17c-1.847,2.069-3.893,3.961-5.884,5.9-.859.836-1.647.97-3.354.76-.4,3-2.324,5.067-4.411,7.044-1.214,1.15-2.351,2.383-3.56,3.539a9.347,9.347,0,0,1-9.893,2.373,9.263,9.263,0,0,1-6.555-7.672,9.041,9.041,0,0,1,2.356-7.984c1.848-1.98,3.814-3.853,5.742-5.758a3.414,3.414,0,0,1,3.4-.762,10.792,10.792,0,0,1,3.741-6.395c.987-.9,1.956-1.835,2.851-2.828a12.84,12.84,0,0,1,6.927-4.285h2.812c.372.119.74.252,1.116.356a9.621,9.621,0,0,1,4.711,15.714" transform="translate(0.001 -327.512)" fill="#fff"/>
</svg>