<svg xmlns="http://www.w3.org/2000/svg" width="63.394" height="63.395" viewBox="0 0 63.394 63.395">
  <path id="Path_76" data-name="Path 76" d="M161.025,39.727a6.211,6.211,0,0,0-6.258,6.152,6.229,6.229,0,1,0,12.458.035,6.157,6.157,0,0,0-6.2-6.187" transform="translate(-129.067 -14.327)" fill="#fff"/>
  <path id="Path_77" data-name="Path 77" d="M147.967,1.076a31.7,31.7,0,1,0,31.7,31.7,31.7,31.7,0,0,0-31.7-31.7m11.777,17.77a1.394,1.394,0,0,1,2.048.353,1.513,1.513,0,0,1-.071,2.186c-1.04,1.134-2.112,2.239-3.224,3.413l-2.257-2.27c1.139-1.217,2.24-2.539,3.5-3.681m-13.407-3.866c.026-.943.749-1.36,1.509-1.7h.232a2.259,2.259,0,0,1,1.606,2.585c-.071,1.26-.016,2.527-.016,3.877h-3.343c0-1.623-.031-3.194.011-4.763M134.251,19.11a1.484,1.484,0,0,1,2.26.005c1.145,1.078,2.234,2.216,3.408,3.389l-2.452,2.334c-1.1-1.143-2.23-2.279-3.308-3.466a1.5,1.5,0,0,1,.093-2.263m-4.295,15.3a1.412,1.412,0,0,1-1.376-1.565,1.486,1.486,0,0,1,1.462-1.633c1.609-.094,3.227-.026,4.928-.026v3.246c-1.715,0-3.367.054-5.014-.022m6.315,12.422a1.442,1.442,0,0,1-2.158-.325,1.523,1.523,0,0,1,.093-2.2c1.077-1.153,2.191-2.272,3.361-3.48l2.235,2.312c-1.152,1.222-2.267,2.539-3.531,3.692m13.353,3.9a1.544,1.544,0,0,1-1.588,1.532,1.483,1.483,0,0,1-1.657-1.431c-.1-1.637-.027-3.285-.027-4.968h3.3c0,1.66.062,3.267-.024,4.866m-1.63-7.04A10.862,10.862,0,1,1,158.8,32.828a10.827,10.827,0,0,1-10.807,10.864m13.779,2.813a1.671,1.671,0,0,1-2.3.1c-1.163-1.06-2.276-2.177-3.436-3.294l2.55-2.6c1.063,1.178,2.118,2.341,3.164,3.51a1.56,1.56,0,0,1,.021,2.282m5.58-13.018a2.38,2.38,0,0,1-2.18.993c-1.377-.06-2.759-.015-4.214-.015V31.19c1.692,0,3.342-.068,4.978.041.489.033.945.562,1.416.863Z" transform="translate(-116.27 -1.076)" fill="#fff"/>
</svg>