<svg xmlns="http://www.w3.org/2000/svg" width="59.89" height="59.89" viewBox="0 0 59.89 59.89">
    <path id="Path_73" data-name="Path 73" d="M30.283,671.177a14,14,0,1,0,14,14,14.013,14.013,0,0,0-14-14m-1.872,5.74h3.675v4.742l-.616,6.282H29.052l-.641-6.282Zm3.272,16.311a2,2,0,1,1,.593-1.422,1.943,1.943,0,0,1-.593,1.422" transform="translate(0 -655.278)" fill="#fff"/>
    <path id="Path_74" data-name="Path 74" d="M29.945,655.278A29.945,29.945,0,1,0,59.89,685.223a29.945,29.945,0,0,0-29.945-29.945m.338,46.064a16.347,16.347,0,1,1,16.348-16.348,16.365,16.365,0,0,1-16.348,16.348" transform="translate(0 -655.278)" fill="#fff"/>
</svg>