<svg width="34" height="34" viewBox="0 0 34 34" fill="none" xmlns="http://www.w3.org/2000/svg">
<circle cx="17" cy="17" r="17" fill="#2775CA"/>
<path d="M17.2159 25.6364H18.2642V24.2109C20.9489 24.0256 22.4574 22.4403 22.4574 20.446C22.4574 17.9915 20.1307 17.1989 18.7756 16.8409L18.2642 16.7003V12.1555C19.6193 12.2898 20.6037 13.0185 20.7443 14.1818H22.2784C22.2145 12.3153 20.5781 10.8963 18.2642 10.7429V9.27273H17.2159V10.7621C15.0234 10.9858 13.3807 12.3793 13.3807 14.3864C13.3807 16.1506 14.6591 17.1989 16.7045 17.7869L17.2159 17.9339V22.7727C15.8736 22.6321 14.7741 21.9418 14.6591 20.625H13.0227C13.1697 22.6385 14.7038 24.0447 17.2159 24.2109V25.6364ZM18.2642 22.7727V18.2344L18.3153 18.2472C19.696 18.6307 20.9233 19.1165 20.9233 20.4205C20.9233 21.7053 19.8111 22.6001 18.2642 22.7727ZM17.2159 16.419C16.2443 16.1442 14.9148 15.6072 14.9148 14.3097C14.9148 13.2038 15.8097 12.3601 17.2159 12.1747V16.419Z" fill="white"/>
</svg>
