<svg width="28" height="28" viewBox="0 0 28 28" fill="none" xmlns="http://www.w3.org/2000/svg">
<path d="M10.1794 25.6981V21.6211C10.1794 20.5804 11.0292 19.7367 12.0776 19.7367H15.9098C16.4133 19.7367 16.8961 19.9353 17.2521 20.2887C17.608 20.6421 17.808 21.1214 17.808 21.6211V25.6981C17.8048 26.1308 17.9758 26.5468 18.2828 26.8539C18.5899 27.161 19.0077 27.3336 19.4436 27.3336H22.0581C23.2792 27.3368 24.4513 26.8574 25.3159 26.0014C26.1804 25.1453 26.6663 23.983 26.6663 22.7708V11.1561C26.6663 10.1769 26.2291 9.24811 25.4725 8.61988L16.5784 1.56815C15.0312 0.331742 12.8145 0.371662 11.3135 1.66296L2.62236 8.61988C1.83 9.22959 1.35641 10.1612 1.33301 11.1561V22.7589C1.33301 25.2855 3.39619 27.3336 5.94124 27.3336H8.49606C9.40131 27.3337 10.137 26.6086 10.1436 25.71L10.1794 25.6981Z" fill="url(#paint0_linear)" stroke="black" stroke-opacity="0.01"/>
<defs>
<linearGradient id="paint0_linear" x1="1.33301" y1="27.3336" x2="26.6663" y2="27.3336" gradientUnits="userSpaceOnUse">
<stop stop-color="#4D165A"/>
<stop offset="0.677811" stop-color="#B5507F"/>
<stop offset="1" stop-color="#DD7F79"/>
</linearGradient>
</defs>
</svg>
