<svg xmlns="http://www.w3.org/2000/svg" width="59.89" height="59.89" viewBox="0 0 59.89 59.89">
    <path id="Path_71" data-name="Path 71" d="M31.576,15.449a1.862,1.862,0,0,0-2.762.057c-4.123,3.626-8.284,7.209-12.365,10.883a2.428,2.428,0,0,0-.662,1.974c.115.5.946,1.027,1.551,1.176A1.783,1.783,0,0,1,18.944,31.5c-.014,2.926.035,5.852-.023,8.776a2.544,2.544,0,0,0,1.328,2.576h6.492c-.018-2.825-.026-5.649-.057-8.474a1.017,1.017,0,0,1,1.146-1.164q2.427-.025,4.849,0c.843.008,1.166.468,1.154,1.3-.04,2.779-.041,5.56-.059,8.34H40a2.612,2.612,0,0,0,1.3-2.6c-.049-2.834-.025-5.67-.013-8.505.007-1.608.345-1.864,1.9-2.206a2.322,2.322,0,0,0,1.558-1.177,2.187,2.187,0,0,0-.562-1.881c-4.156-3.723-8.386-7.364-12.594-11.03" fill="#fff"/>
    <path id="Path_72" data-name="Path 72" d="M29.945,0A29.945,29.945,0,1,0,59.89,29.946,29.945,29.945,0,0,0,29.945,0M47.219,29.153a4.79,4.79,0,0,1-3.331,2.9l0,.882c-.012,2.389-.025,4.859.017,7.272a5.166,5.166,0,0,1-2.615,4.913,2.605,2.605,0,0,1-1.29.341H33.775a2.61,2.61,0,0,1-2.61-2.626l.012-2.316c.007-1.543.014-3.127.031-4.707l-.961,0-.939,0q.021,2.36.03,4.72l.013,2.3a2.61,2.61,0,0,1-2.61,2.626H20.249a2.611,2.611,0,0,1-1.241-.314,5.1,5.1,0,0,1-2.7-4.923c.035-1.8.03-3.64.024-5.423,0-.946-.006-1.892,0-2.838a4.618,4.618,0,0,1-3.089-3.01,5,5,0,0,1,1.459-4.5c2.775-2.5,5.627-4.989,8.385-7.4q2-1.749,4-3.5a4.715,4.715,0,0,1,3.148-1.292,4.582,4.582,0,0,1,3.05,1.227q1.413,1.23,2.829,2.459c3.222,2.8,6.554,5.693,9.794,8.6a4.735,4.735,0,0,1,1.307,4.618" fill="#fff"/>
</svg>
