<svg width="40" height="40" viewBox="0 0 40 40" fill="none" xmlns="http://www.w3.org/2000/svg">
<g filter="url(#filter0_d)">
<path d="M10 15C10 20.51 14.48 25 20 25C25.51 25 30 20.51 30 15C30 9.48 25.51 5 20 5C14.48 5 10 9.48 10 15Z" fill="white"/>
</g>
<path d="M23.165 13.2263C23.455 12.9263 23.925 12.9263 24.225 13.2163C24.375 13.3663 24.445 13.5563 24.445 13.7563C24.445 13.9463 24.375 14.1363 24.225 14.2763L20.755 17.7663C20.615 17.9063 20.425 17.9863 20.225 17.9863C20.025 17.9863 19.835 17.9063 19.695 17.7663L16.225 14.2763C15.925 13.9863 15.925 13.5163 16.225 13.2163C16.515 12.9263 16.995 12.9263 17.285 13.2263L20.225 16.1763L23.165 13.2263Z" fill="#5738DF"/>
<defs>
<filter id="filter0_d" x="0" y="0" width="40" height="40" filterUnits="userSpaceOnUse" color-interpolation-filters="sRGB">
<feFlood flood-opacity="0" result="BackgroundImageFix"/>
<feColorMatrix in="SourceAlpha" type="matrix" values="0 0 0 0 0 0 0 0 0 0 0 0 0 0 0 0 0 0 127 0"/>
<feOffset dy="5"/>
<feGaussianBlur stdDeviation="5"/>
<feColorMatrix type="matrix" values="0 0 0 0 0.541176 0 0 0 0 0.603922 0 0 0 0 0.72549 0 0 0 0.2 0"/>
<feBlend mode="normal" in2="BackgroundImageFix" result="effect1_dropShadow"/>
<feBlend mode="normal" in="SourceGraphic" in2="effect1_dropShadow" result="shape"/>
</filter>
</defs>
</svg>
