<svg width="30" height="30" viewBox="0 0 30 30" fill="none" xmlns="http://www.w3.org/2000/svg">
<path d="M20.8362 2.50049C25.0875 2.50049 27.4875 4.91174 27.5 9.16299V20.838C27.5 25.088 25.0875 27.5005 20.8362 27.5005H9.1625C4.91125 27.5005 2.5 25.088 2.5 20.838V9.16299C2.5 4.91174 4.91125 2.50049 9.1625 2.50049H20.8362ZM15.625 7.66299C15.2737 7.45049 14.8487 7.45049 14.5125 7.66299C14.1737 7.87424 13.9875 8.26299 14.0238 8.65049V21.388C14.0875 21.9255 14.5363 22.3255 15.0612 22.3255C15.6 22.3255 16.0487 21.9255 16.0987 21.388V8.65049C16.1487 8.26299 15.9625 7.87424 15.625 7.66299ZM9.7875 11.763C9.45 11.5505 9.02375 11.5505 8.6875 11.763C8.34875 11.9755 8.1625 12.3617 8.2 12.7505V21.388C8.24875 21.9255 8.69875 22.3255 9.23625 22.3255C9.775 22.3255 10.2237 21.9255 10.2737 21.388V12.7505C10.3125 12.3617 10.1237 11.9755 9.7875 11.763ZM21.3612 16.3005C21.025 16.088 20.6 16.088 20.25 16.3005C19.9112 16.513 19.725 16.8867 19.775 17.288V21.388C19.825 21.9255 20.2737 22.3255 20.8125 22.3255C21.3375 22.3255 21.7862 21.9255 21.85 21.388V17.288C21.8862 16.8867 21.7 16.513 21.3612 16.3005Z" fill="rgba(138,154,185,0.6)"/>
<defs>
<linearGradient id="paint0_linear" x1="2.5" y1="27.5005" x2="27.5" y2="27.5005" gradientUnits="userSpaceOnUse">
<stop stop-color="#4D165A"/>
<stop offset="0.677811" stop-color="#B5507F"/>
<stop offset="1" stop-color="#DD7F79"/>
</linearGradient>
</defs>
</svg>
