<svg xmlns="http://www.w3.org/2000/svg" width="63.395" height="63.394" viewBox="0 0 63.395 63.394">
    <path id="Path_75" data-name="Path 75" d="M31.7,0a31.7,31.7,0,1,0,31.7,31.7A31.7,31.7,0,0,0,31.7,0M29.765,17.19a2.913,2.913,0,0,0,1.378-1.37.3.3,0,0,1,.539-.005,3,3,0,0,0,1.391,1.38.3.3,0,0,1,0,.541,2.811,2.811,0,0,0-1.391,1.381.3.3,0,0,1-.54,0,2.881,2.881,0,0,0-1.356-1.387.3.3,0,0,1-.016-.541m6.78,24.336a.088.088,0,0,1-.009.013,14.477,14.477,0,0,1-25.864-7.155,6.457,6.457,0,0,0-.227-.96L10.4,32.157c.2-1.029.365-2.068.619-3.084A14.417,14.417,0,0,1,22.09,18.557a.777.777,0,0,1,.8,1.172c-3.088,5.066-3.265,10.25.43,15.336,3.089,4.252,7.366,5.77,12.511,5.227a.775.775,0,0,1,.711,1.233M43.5,22.692a5.772,5.772,0,0,0-2.857,2.836.62.62,0,0,1-1.11,0,5.925,5.925,0,0,0-2.785-2.851.617.617,0,0,1-.033-1.109,5.988,5.988,0,0,0,2.83-2.814.619.619,0,0,1,1.106-.012,6.148,6.148,0,0,0,2.857,2.835.619.619,0,0,1-.009,1.111" fill="#fff" opacity="0.47"/>
</svg>