<svg width="28" height="28" viewBox="0 0 28 28" fill="none" xmlns="http://www.w3.org/2000/svg">
<path fill-rule="evenodd" clip-rule="evenodd" d="M7.86722 27.3334C5.64362 27.3334 3.81122 26.6746 2.56562 25.429C1.32362 24.1834 0.666016 22.3522 0.666016 20.1322V10.267C0.666016 8.04099 1.32362 6.20379 2.56562 4.95339C3.81122 3.70179 5.64482 3.04059 7.86722 3.04059H18.5988C18.5472 3.37059 18.5196 3.70539 18.5196 4.04019C18.5196 7.03179 20.9484 9.46539 23.9328 9.46539C24.294 9.46539 24.6348 9.41979 24.9192 9.37419V20.1322C24.9192 22.3522 24.2628 24.1834 23.0196 25.429C21.7752 26.6746 19.9416 27.3334 17.7192 27.3334H7.86722ZM10.2528 12.6142C9.99122 12.6538 9.74762 12.799 9.58562 13.0126L5.64122 18.1474L5.55962 18.2674C5.32802 18.7018 5.44802 19.2454 5.83922 19.5334C6.05282 19.6702 6.24722 19.7338 6.45242 19.7338C6.46442 19.735 6.47642 19.735 6.48722 19.735C6.77282 19.735 7.05362 19.585 7.23962 19.3342L10.5864 15.0262L14.3856 17.881L14.5056 17.959C14.6508 18.0358 14.8128 18.0766 14.976 18.0766C15.2892 18.0766 15.5796 17.9314 15.7728 17.6794L19.626 12.7078L19.5732 12.7342C19.7856 12.4402 19.8264 12.067 19.6788 11.7334C19.5348 11.4046 19.2168 11.1742 18.8676 11.1478C18.8304 11.1442 18.7932 11.1418 18.756 11.1418C18.4332 11.1418 18.1248 11.2978 17.9328 11.5606L14.7072 15.7342L11.0124 12.8278C10.8252 12.6838 10.6032 12.6082 10.3704 12.6082C10.332 12.6082 10.2924 12.6106 10.2528 12.6142ZM20.9064 3.88059C20.9064 2.10699 22.3464 0.666992 24.12 0.666992C25.8924 0.666992 27.3324 2.10699 27.3324 3.88059C27.3324 5.65419 25.8924 7.09419 24.12 7.09419C22.3464 7.09419 20.9064 5.65419 20.9064 3.88059Z" fill="url(#paint0_linear)"/>
<defs>
<linearGradient id="paint0_linear" x1="0.666016" y1="27.3334" x2="27.3324" y2="27.3334" gradientUnits="userSpaceOnUse">
<stop stop-color="#4D165A"/>
<stop offset="0.677811" stop-color="#B5507F"/>
<stop offset="1" stop-color="#DD7F79"/>
</linearGradient>
</defs>
</svg>
