<svg id="Iconly_Bold_Activity" data-name="Iconly/Bold/Activity" xmlns="http://www.w3.org/2000/svg" width="32" height="32" viewBox="0 0 32 32">
  <g id="Activity" transform="translate(2.666 2.667)">
    <path id="Activity-2" data-name="Activity" d="M7.2,26.666a7.291,7.291,0,0,1-5.3-1.9,7.3,7.3,0,0,1-1.9-5.3V9.6A7.338,7.338,0,0,1,1.9,4.286,7.273,7.273,0,0,1,7.2,2.374H17.933a6.478,6.478,0,0,0-.079,1A5.426,5.426,0,0,0,23.267,8.8a6.225,6.225,0,0,0,.986-.091V19.465a7.293,7.293,0,0,1-1.9,5.3,7.288,7.288,0,0,1-5.3,1.9ZM9.587,11.947a1.042,1.042,0,0,0-.667.4L4.975,17.48l-.082.12a1,1,0,0,0,.28,1.266,1.109,1.109,0,0,0,.613.2h.035a.953.953,0,0,0,.752-.4L9.92,14.359l3.8,2.855.12.078a1,1,0,0,0,1.267-.28l3.853-4.972-.053.026a1,1,0,0,0,.106-1,.982.982,0,0,0-.811-.586c-.037,0-.074-.006-.112-.006a1.024,1.024,0,0,0-.823.419l-3.226,4.174-3.695-2.906a1.045,1.045,0,0,0-.642-.22C9.666,11.941,9.626,11.944,9.587,11.947ZM20.24,3.214a3.213,3.213,0,1,1,3.214,3.214A3.215,3.215,0,0,1,20.24,3.214Z" transform="translate(0 0)" fill="rgba(138,154,185,0.6)"/>
  </g>
</svg>
