<svg xmlns="http://www.w3.org/2000/svg" width="59.89" height="59.89" viewBox="0 0 59.89 59.89">
    <path id="Path_63" data-name="Path 63" d="M21.186,256.613a13.926,13.926,0,0,0,4.225,1.621,26.373,26.373,0,0,0,8.149.512,19.747,19.747,0,0,0,6.1-1.4,7.6,7.6,0,0,0,2.687-1.749,2.565,2.565,0,0,0,.586-.952c-.461.132-.878.257-1.3.37a26.12,26.12,0,0,1-4.7.791A28.875,28.875,0,0,1,32,255.795a22.648,22.648,0,0,1-7.853-1.99,8.54,8.54,0,0,1-2.977-2.189,4.833,4.833,0,0,0-1.753,1.693,1.7,1.7,0,0,0,.144,1.832,4.9,4.9,0,0,0,1.626,1.472" transform="translate(0 -218.342)" fill="#fff"/>
    <path id="Path_64" data-name="Path 64" d="M29.969,244.8a19.8,19.8,0,0,0,6.378-1.7,7.344,7.344,0,0,0,1.831-1.181,1.49,1.49,0,0,0,.614-1.459c-.524.32-1.025.66-1.556.942a17.494,17.494,0,0,1-4.926,1.654,28.932,28.932,0,0,1-7.419.439,21.4,21.4,0,0,1-7.861-1.825c-.648-.306-1.247-.717-1.867-1.081-.056-.032-.107-.071-.164-.109a1.189,1.189,0,0,0,.477,1.31,8.816,8.816,0,0,0,2.518,1.522,20.435,20.435,0,0,0,5.532,1.443,26.915,26.915,0,0,0,6.443.041" transform="translate(0 -218.342)" fill="#fff"/>
    <path id="Path_65" data-name="Path 65" d="M16.743,239.083a14.055,14.055,0,0,0,4.711,1.791,26.549,26.549,0,0,0,8.058.417,19.68,19.68,0,0,0,5.989-1.43,7.473,7.473,0,0,0,2.6-1.7,3.6,3.6,0,0,0,.3-.367,1.8,1.8,0,0,0,.037-2.221,5.088,5.088,0,0,0-1.765-1.537,15.5,15.5,0,0,0-4.88-1.7,26.294,26.294,0,0,0-4.774-.452,24.677,24.677,0,0,0-7.108.946,10.335,10.335,0,0,0-3.826,1.891,4.915,4.915,0,0,0-.89,1.023,1.633,1.633,0,0,0-.038,1.769,4.355,4.355,0,0,0,1.591,1.573" transform="translate(0 -218.342)" fill="#fff"/>
    <path id="Path_66" data-name="Path 66" d="M29.945,218.342A29.945,29.945,0,1,0,59.89,248.287a29.945,29.945,0,0,0-29.945-29.945M47.918,251.51a7.038,7.038,0,0,1-2.369,1.971.493.493,0,0,0-.318.549c.042.735.014,1.474.014,2.211,0,.6-.024,1.2.005,1.79a3.411,3.411,0,0,1-.979,2.523,8.832,8.832,0,0,1-3.075,2.1,24.1,24.1,0,0,1-8.987,1.879,27.949,27.949,0,0,1-5.573-.336,20.58,20.58,0,0,1-6.166-1.91,8.159,8.159,0,0,1-2.531-1.894,3.176,3.176,0,0,1-.846-2.269c.028-.621.006-1.243.006-1.865,0-.6.042-1.213-.011-1.813a3.917,3.917,0,0,1,.571-2.421,7.141,7.141,0,0,1,2.578-2.393.314.314,0,0,0,.2-.3c-.01-.911-.009-1.822,0-2.734,0-.157-.045-.219-.206-.27-.994-.313-2-.6-2.967-.982a9.416,9.416,0,0,1-3.4-2.152A3.384,3.384,0,0,1,12.8,240.61c.039-.943.009-1.89.008-2.834a7.115,7.115,0,0,0-.009-.745,3.7,3.7,0,0,1,.2-1.686,5.7,5.7,0,0,1,2.086-2.6,13.06,13.06,0,0,1,3.937-1.912,25.073,25.073,0,0,1,6.922-1.084,26.586,26.586,0,0,1,8.736,1.086,12.974,12.974,0,0,1,4.035,1.987,5.065,5.065,0,0,1,2.246,4.507c-.03.571,0,1.144-.007,1.716a.233.233,0,0,0,.2.272c.667.194,1.338.381,1.99.619a10.461,10.461,0,0,1,4.042,2.454,4.636,4.636,0,0,1,1.384,3.373c-.008,1.235-.015,2.47.005,3.7a3.3,3.3,0,0,1-.666,2.039" transform="translate(0 -218.342)" fill="#fff"/>
    <path id="Path_67" data-name="Path 67" d="M42.99,257.929a14.827,14.827,0,0,1-5.573,2.394,27.005,27.005,0,0,1-5.835.67,26.817,26.817,0,0,1-7.664-.918,13.673,13.673,0,0,1-4.57-2.121.68.68,0,0,0-.083-.042,1.315,1.315,0,0,0,.53,1.346,7.959,7.959,0,0,0,1.959,1.256,18.7,18.7,0,0,0,4.822,1.5,26.729,26.729,0,0,0,9,.047,17.3,17.3,0,0,0,5.6-1.793,5.424,5.424,0,0,0,1.591-1.212,1.28,1.28,0,0,0,.313-1.16.429.429,0,0,0-.09.037" transform="translate(0 -218.342)" fill="#fff"/>
    <path id="Path_68" data-name="Path 68" d="M31.282,246.8a29.347,29.347,0,0,1-6.441.247c-.492-.035-.982-.088-1.473-.133-.012.019-.023.038-.036.057.261.223.508.464.784.664a12.338,12.338,0,0,0,4.619,1.935,26.074,26.074,0,0,0,11.675-.034,13.125,13.125,0,0,0,4.138-1.637,4.79,4.79,0,0,0,1.51-1.383A1.784,1.784,0,0,0,46,244.277a5.488,5.488,0,0,0-1.783-1.482,13.866,13.866,0,0,0-3.175-1.268c-.046-.013-.094-.019-.162-.032a4.235,4.235,0,0,1-1.247,1.973,9.621,9.621,0,0,1-2.613,1.7,20.96,20.96,0,0,1-5.737,1.629" transform="translate(0 -218.342)" fill="#fff"/>
    <path id="Path_69" data-name="Path 69" d="M45.549,249.8a16.388,16.388,0,0,1-5.472,2.016,29.442,29.442,0,0,1-9.225.311,19.52,19.52,0,0,1-6.366-1.745c-.651-.318-1.264-.716-1.9-1.082a1.157,1.157,0,0,0,.212.942,4.787,4.787,0,0,0,1.356,1.114,15.878,15.878,0,0,0,4.573,1.756,25.2,25.2,0,0,0,6.733.629,22.482,22.482,0,0,0,7.9-1.573,8.2,8.2,0,0,0,2.48-1.49,1.461,1.461,0,0,0,.574-1.452c-.3.2-.575.4-.862.574" transform="translate(0 -218.342)" fill="#fff"/>
</svg>