<svg width="26" height="28" viewBox="0 0 26 28" fill="none" xmlns="http://www.w3.org/2000/svg">
<path fill-rule="evenodd" clip-rule="evenodd" d="M13.9288 27.3334H12.0748C10.4861 27.3334 9.24157 26.1326 9.24157 24.5998C9.21406 23.2846 8.06554 22.1734 6.73357 22.1734C6.23752 22.1734 5.84538 22.2739 5.53477 22.4806C5.12561 22.7308 4.58552 22.8802 4.08997 22.8802C3.09906 22.8802 2.16977 22.3491 1.66477 21.4942L0.725172 19.8934C0.214962 19.0163 0.204382 17.9689 0.697572 17.1598C0.920492 16.7519 1.32784 16.3585 1.78717 16.1074C2.18565 15.9119 2.43561 15.5818 2.64637 15.2542C2.97102 14.7078 3.06084 14.0614 2.89924 13.434C2.73375 12.7916 2.32943 12.2541 1.76077 11.9206C1.1143 11.556 0.653122 10.9642 0.462172 10.2544C0.269862 9.53941 0.372642 8.79085 0.751572 8.14659L1.66477 6.57339C2.17756 5.71747 3.11112 5.18576 4.10113 5.18576C4.58945 5.18576 5.07565 5.31537 5.50717 5.56059C5.86904 5.7558 6.2826 5.859 6.70309 5.859C7.61434 5.859 8.46656 5.39197 8.92717 4.64019C9.16078 4.24099 9.26657 3.84612 9.24157 3.46659C9.21548 2.97539 9.351 2.4738 9.62317 2.05419C10.1289 1.22458 11.0527 0.693032 12.034 0.666992H13.9552C14.9302 0.666992 15.86 1.19854 16.3816 2.05419C16.5749 2.36976 16.7955 2.87098 16.7488 3.46659C16.7238 3.84539 16.8292 4.24026 17.062 4.64019C17.5234 5.39196 18.3777 5.859 19.2914 5.859C19.7138 5.859 20.1305 5.75581 20.4964 5.56059C20.9237 5.31538 21.4077 5.18576 21.8961 5.18576C22.8904 5.18576 23.8214 5.71747 24.3256 6.57339L25.2376 8.14659C25.6228 8.78966 25.73 9.53692 25.5394 10.2507C25.3493 10.9622 24.8842 11.5553 24.2296 11.9206C23.6588 12.2554 23.2547 12.7942 23.0918 13.4379C22.9332 14.0647 23.0274 14.7097 23.3572 15.2542C23.5443 15.5626 23.791 15.9051 24.202 16.1074C24.7354 16.3902 25.0968 16.8358 25.306 17.1598C25.7914 17.9562 25.7815 18.978 25.2796 19.8934L24.3256 21.4942C23.8282 22.3362 22.8815 22.8802 21.9136 22.8802C21.4118 22.8802 20.8852 22.7345 20.4688 22.4806C20.1461 22.2739 19.754 22.1734 19.27 22.1734C17.9211 22.1734 16.7901 23.2619 16.7488 24.5998C16.7488 26.1326 15.5101 27.3334 13.9288 27.3334H13.9288ZM13.0156 10.2406C10.8817 10.2406 9.14557 11.9331 9.14557 14.0134C9.14557 15.0245 9.54782 15.9712 10.2782 16.679C11.0069 17.3853 11.9791 17.7742 13.0156 17.7742C15.1628 17.7742 16.8448 16.1222 16.8448 14.0134C16.8448 12.9995 16.4498 12.0509 15.7325 11.3422C15.0136 10.6318 14.0487 10.2406 13.0156 10.2406Z" fill="#B5507F"/>
</svg>
