<svg xmlns="http://www.w3.org/2000/svg" width="16.667" height="16.667" viewBox="0 0 16.667 16.667">
  <g id="Arrow_-_Right_Circle" data-name="Arrow - Right Circle" transform="translate(0)">
    <path id="Arrow_-_Right_Circle-2" data-name="Arrow - Right Circle" d="M8.333,16.667l-.233,0a8.343,8.343,0,1,1,.233,0Zm-1.2-11.85a.621.621,0,0,0-.442,1.067L9.15,8.333l-2.458,2.45a.622.622,0,0,0-.008.883.627.627,0,0,0,.445.187.606.606,0,0,0,.439-.187l2.909-2.892a.625.625,0,0,0,0-.883L7.567,5A.585.585,0,0,0,7.133,4.816Z" transform="translate(0 0)" fill="#5738df"/>
  </g>
</svg>
