<svg xmlns="http://www.w3.org/2000/svg" width="59.891" height="59.89" viewBox="0 0 59.891 59.89">
  <path id="Path_70" data-name="Path 70" d="M29.945,109.171a29.945,29.945,0,1,0,29.946,29.946,29.945,29.945,0,0,0-29.946-29.946m-16.571,35.34c-.017.061,0,.158-.081.171s-.126-.069-.163-.134a4.45,4.45,0,0,1-.417-1.341,7.863,7.863,0,0,1-.133-.991h-.04v-1.269h.04a17.227,17.227,0,0,1,2.248-7.326,15.1,15.1,0,0,1,6.066-5.835,21.452,21.452,0,0,1,7.47-2.4,31.256,31.256,0,0,1,3.277-.28c.165-.005.218-.052.217-.223-.006-1.453,0-2.9,0-4.357v-.218c.081-.037.11.025.148.057q2.859,2.351,5.716,4.7,2.146,1.767,4.3,3.534c.128.106.121.151,0,.252q-4.984,4.1-9.963,8.2c-.051.042-.1.081-.193.149v-.255c0-1.459,0-2.918.006-4.377,0-.17-.044-.222-.216-.216a33.6,33.6,0,0,0-4.127.394,22.57,22.57,0,0,0-6.1,1.856,13.561,13.561,0,0,0-3.5,2.317,15.9,15.9,0,0,0-4.547,7.586M46.809,138.8a17.342,17.342,0,0,1-1.759,5.885,15.028,15.028,0,0,1-6.156,6.437,20.913,20.913,0,0,1-6.737,2.423,29.767,29.767,0,0,1-4.326.451c-.2.007-.244.072-.243.262.008,1.439.005,2.878.005,4.317v.222c-.087.033-.119-.037-.162-.071q-4.62-3.8-9.237-7.606c-.258-.213-.51-.432-.776-.634-.142-.108-.079-.157.02-.238q2.15-1.766,4.3-3.536l5.572-4.592c.082-.067.165-.132.286-.229v3.661c0,.334.009.668,0,1-.006.159.049.2.2.192.818-.018,1.634-.082,2.447-.167a25.3,25.3,0,0,0,4.059-.726,18.614,18.614,0,0,0,6.235-2.838,11.645,11.645,0,0,0,1-.84,15.894,15.894,0,0,0,4.5-7.411c.021-.072.036-.146.057-.218.014-.048,0-.121.078-.124.058,0,.1.046.127.091a2.349,2.349,0,0,1,.287.7,9.232,9.232,0,0,1,.232,3.59" transform="translate(0 -109.171)" fill="#fff"/>
</svg>
