<svg width="32" height="32" viewBox="0 0 32 32" fill="none" xmlns="http://www.w3.org/2000/svg">
<path fill-rule="evenodd" clip-rule="evenodd" d="M30 16C30 8.272 23.728 2 16 2C8.272 2 2 8.272 2 16C2 23.728 8.272 30 16 30C23.728 30 30 23.728 30 16ZM20.2 8.3L24.61 12.71C24.89 12.99 24.89 13.424 24.61 13.704L20.2 18.1V14.6H14.6V11.8H20.2V8.3ZM11.8 23.7L7.39 19.29C7.11 19.01 7.11 18.576 7.39 18.296L11.8 13.9V17.4H17.4V20.2H11.8V23.7Z" fill="url(#paint0_linear)"/>
<path d="M20.2 8.3L20.5536 7.94645L19.7 7.09289V8.3H20.2ZM24.61 12.71L24.9636 12.3564L24.61 12.71ZM24.61 13.704L24.963 14.0581L24.9636 14.0576L24.61 13.704ZM20.2 18.1H19.7V19.3044L20.553 18.4541L20.2 18.1ZM20.2 14.6H20.7V14.1H20.2V14.6ZM14.6 14.6H14.1V15.1H14.6V14.6ZM14.6 11.8V11.3H14.1V11.8H14.6ZM20.2 11.8V12.3H20.7V11.8H20.2ZM11.8 23.7L11.4464 24.0536L12.3 24.9071V23.7H11.8ZM7.39 19.29L7.74355 18.9364L7.39 19.29ZM7.39 18.296L7.03701 17.9419L7.03645 17.9424L7.39 18.296ZM11.8 13.9H12.3V12.6956L11.447 13.5459L11.8 13.9ZM11.8 17.4H11.3V17.9H11.8V17.4ZM17.4 17.4H17.9V16.9H17.4V17.4ZM17.4 20.2V20.7H17.9V20.2H17.4ZM11.8 20.2V19.7H11.3V20.2H11.8ZM30.5 16C30.5 7.99586 24.0041 1.5 16 1.5V2.5C23.4519 2.5 29.5 8.54814 29.5 16H30.5ZM16 1.5C7.99586 1.5 1.5 7.99586 1.5 16H2.5C2.5 8.54814 8.54814 2.5 16 2.5V1.5ZM1.5 16C1.5 24.0041 7.99586 30.5 16 30.5V29.5C8.54814 29.5 2.5 23.4519 2.5 16H1.5ZM16 30.5C24.0041 30.5 30.5 24.0041 30.5 16H29.5C29.5 23.4519 23.4519 29.5 16 29.5V30.5ZM19.8464 8.65355L24.2564 13.0636L24.9636 12.3564L20.5536 7.94645L19.8464 8.65355ZM24.2564 13.0636C24.3412 13.1483 24.3412 13.2657 24.2564 13.3504L24.9636 14.0576C25.4388 13.5823 25.4388 12.8317 24.9636 12.3564L24.2564 13.0636ZM24.257 13.3499L19.847 17.7459L20.553 18.4541L24.963 14.0581L24.257 13.3499ZM20.7 18.1V14.6H19.7V18.1H20.7ZM20.2 14.1H14.6V15.1H20.2V14.1ZM15.1 14.6V11.8H14.1V14.6H15.1ZM14.6 12.3H20.2V11.3H14.6V12.3ZM20.7 11.8V8.3H19.7V11.8H20.7ZM12.1536 23.3464L7.74355 18.9364L7.03645 19.6436L11.4464 24.0536L12.1536 23.3464ZM7.74355 18.9364C7.65882 18.8517 7.65882 18.7343 7.74355 18.6496L7.03645 17.9424C6.56118 18.4177 6.56118 19.1683 7.03645 19.6436L7.74355 18.9364ZM7.74299 18.6501L12.153 14.2541L11.447 13.5459L7.03701 17.9419L7.74299 18.6501ZM11.3 13.9V17.4H12.3V13.9H11.3ZM11.8 17.9H17.4V16.9H11.8V17.9ZM16.9 17.4V20.2H17.9V17.4H16.9ZM17.4 19.7H11.8V20.7H17.4V19.7ZM11.3 20.2V23.7H12.3V20.2H11.3Z" fill="black" fill-opacity="0.01"/>
<defs>
<linearGradient id="paint0_linear" x1="2" y1="30" x2="30" y2="30" gradientUnits="userSpaceOnUse">
<stop stop-color="#4D165A"/>
<stop offset="0.677811" stop-color="#B5507F"/>
<stop offset="1" stop-color="#DD7F79"/>
</linearGradient>
</defs>
</svg>
