<svg width="28" height="22" viewBox="0 0 28 22" fill="none" xmlns="http://www.w3.org/2000/svg">
<rect width="28" height="22" rx="8" fill="#B5507F" fill-opacity="0.101961"/>
<path d="M18.3869 6.4939V8.08124C19.6566 8.81043 20.4514 9.84912 20.4514 11.0003C20.4514 13.1973 17.5585 14.9863 13.9998 14.9863H13.8088L15.5791 13.3778L14.4849 12.3837L10.8411 15.6897L14.4849 19.0004L15.5791 18.0062L13.8011 16.3931H13.9998C18.4101 16.3931 21.9998 13.9734 21.9998 11.0004C21.9998 9.12463 20.5598 7.45992 18.3869 6.49391V6.4939Z" fill="#B5507F"/>
<path d="M13.5148 9.62134L17.1587 6.31067L13.5148 3L12.4206 3.99414L14.2013 5.61196L14 5.60727C9.58968 5.60727 6 8.02696 6 11C6 12.8757 7.44 14.5405 9.6129 15.5064V13.9191C8.34322 13.1899 7.54838 12.1512 7.54838 11C7.54838 8.80305 10.4413 7.01407 14 7.01407H14.1884L12.4206 8.62016L13.5148 9.62134Z" fill="#B5507F"/>
</svg>
