<svg xmlns="http://www.w3.org/2000/svg" xmlns:xlink="http://www.w3.org/1999/xlink" width="33.369" height="33.99" viewBox="0 0 33.369 33.99">
  <defs>
    <clipPath id="clip-path">
      <rect id="Rectangle_50" data-name="Rectangle 50" width="33.369" height="33.99" fill="none"/>
    </clipPath>
  </defs>
  <g id="Group_82" data-name="Group 82" clip-path="url(#clip-path)">
    <path id="Path_79" data-name="Path 79" d="M43.459,19.132a9.566,9.566,0,1,0-9.62-9.59,9.593,9.593,0,0,0,9.62,9.59m-.032-16.7a7.132,7.132,0,1,1-7.154,7.134,7.088,7.088,0,0,1,7.154-7.134" transform="translate(-26.731 -0.001)" fill="#fff"/>
    <path id="Path_80" data-name="Path 80" d="M33.02,116.492c-.056-.088-.106-.18-.163-.267-3.786-5.843-9.206-8.773-16.162-9.085-6.862.281-12.319,3.148-16.134,8.977-.746,1.14-.735,1.822-.046,2.287.718.485,1.334.183,2.108-1.035.056-.088.109-.178.167-.265a16.636,16.636,0,0,1,28.191.68c.425.711,1.028,1.122,1.814.619s.678-1.21.225-1.911" transform="translate(0 -84.636)" fill="#fff"/>
  </g>
</svg>
