<svg width="28" height="24" viewBox="0 0 28 24" fill="none" xmlns="http://www.w3.org/2000/svg">
<path fill-rule="evenodd" clip-rule="evenodd" d="M20.0215 24.0003H7.97949C5.72328 24.0003 3.86284 23.3496 2.59929 22.1184C1.33517 20.8876 0.666992 19.0769 0.666992 16.8822V7.1181C0.666992 4.92338 1.33517 3.11273 2.59929 1.8819C3.86284 0.65075 5.72328 0 7.97949 0H20.0215C22.2793 0 24.1397 0.65324 25.4017 1.8891C26.6658 3.12712 27.334 4.9552 27.334 7.1757H21.6919V7.22162C20.4272 7.22255 19.2377 7.70384 18.3414 8.57781C17.4452 9.45177 16.9516 10.6117 16.9516 11.844C16.9516 14.3928 19.0781 16.4664 21.6919 16.4664H27.334V16.8822C27.334 19.0769 26.6658 20.8876 25.4017 22.1184C24.1381 23.3496 22.2777 24.0003 20.0215 24.0003ZM6.98409 5.1885C6.42902 5.1885 5.97158 5.62898 5.96439 6.1704C5.96439 6.71843 6.42183 7.16941 6.98409 7.1757H12.5101C13.0719 7.1757 13.5289 6.72997 13.5289 6.1821C13.5289 5.63423 13.0719 5.1885 12.5101 5.1885H6.98409ZM26.3377 14.4783H21.799H21.7594C20.441 14.4783 19.3122 13.6041 19.0144 12.3525C18.8624 11.57 19.0727 10.767 19.5913 10.1493C20.1083 9.53322 20.8743 9.17369 21.6928 9.1629H26.3377C26.8871 9.1629 27.334 9.59853 27.334 10.134V13.5081C27.3277 14.0368 26.8808 14.472 26.3377 14.4783ZM21.88 10.7235C21.6126 10.7235 21.362 10.8239 21.1744 11.0061C20.9834 11.1899 20.8738 11.4445 20.8738 11.7045C20.8738 12.253 21.3316 12.7044 21.8944 12.7107H22.3318C22.8936 12.7107 23.3506 12.265 23.3506 11.7171C23.3506 11.1692 22.8936 10.7235 22.3318 10.7235H21.8944H21.88Z" fill="#B5507F"/>
</svg>
