<svg xmlns="http://www.w3.org/2000/svg" width="59.89" height="59.89" viewBox="0 0 59.89 59.89">
    <path id="Path_50" data-name="Path 50" d="M46.858,566.879c0-1.117-.415-1.553-1.522-1.553q-15.358,0-30.719,0c-1.054,0-1.511.475-1.512,1.528v15.921c0,1.106.475,1.584,1.583,1.586,1.562,0,3.124,0,4.686,0,1.095,0,1.541.451,1.542,1.545,0,1.416,0,2.832,0,4.391,1.861-1.862,3.623-3.608,5.362-5.376a1.79,1.79,0,0,1,1.384-.569c3.9.015,7.81.008,11.714.008q3.02,0,6.041,0a1.3,1.3,0,0,0,1.43-.944,4.458,4.458,0,0,0,.011-.826Zm-29.575,1.89a3.593,3.593,0,0,1,.519-.018H30.034q6.092,0,12.181,0a3.185,3.185,0,0,1,.57.024.876.876,0,0,1,.18,1.661,1.375,1.375,0,0,1-.506.087q-12.467.006-24.933,0a.875.875,0,0,1-.979-.95.8.8,0,0,1,.736-.806M42.87,580.877a1.952,1.952,0,0,1-.563.056q-12.309,0-24.62,0c-.751,0-1.145-.312-1.143-.9a.83.83,0,0,1,.735-.861,4.176,4.176,0,0,1,.571-.018H42.21a3.735,3.735,0,0,1,.519.014.815.815,0,0,1,.755.8.806.806,0,0,1-.614.908m-.213-5.15a4.107,4.107,0,0,1-.416,0H17.776a3.477,3.477,0,0,1-.468-.008.879.879,0,0,1-.764-.9.837.837,0,0,1,.8-.856,4.56,4.56,0,0,1,.468-.009H42.224c.14,0,.279-.007.417,0a.864.864,0,0,1,.851.872.888.888,0,0,1-.835.9" transform="translate(0 -545.855)"  fill="#fff"/>
    <path id="Path_51" data-name="Path 51" d="M29.945,545.855A29.945,29.945,0,1,0,59.891,575.8a29.945,29.945,0,0,0-29.946-29.945m14.971,40.407q-8.23,0-16.461.013a1.146,1.146,0,0,0-.727.3c-2.214,2.184-4.408,4.39-6.614,6.582a9.572,9.572,0,0,1-.772.626h-.8a1.584,1.584,0,0,1-.844-1.615c.031-1.7.01-3.41.01-5.115v-.794H15.053a3.711,3.711,0,0,1-3.876-3.874q0-7.847,0-15.7a3.727,3.727,0,0,1,3.881-3.877H44.969a3.707,3.707,0,0,1,3.858,3.844q0,7.848,0,15.7a3.754,3.754,0,0,1-3.911,3.908" transform="translate(0 -545.855)"  fill="#fff"/>
</svg>