<svg width="28" height="24" viewBox="0 0 28 24" fill="none" xmlns="http://www.w3.org/2000/svg">
<path fill-rule="evenodd" clip-rule="evenodd" d="M20.0206 24H7.97979C5.72419 24 3.86354 23.3493 2.59899 22.1184C1.33507 20.8869 0.666992 19.076 0.666992 16.8816V7.1184C0.666992 4.92396 1.33507 3.11311 2.59899 1.8816C3.86354 0.65065 5.72419 0 7.97979 0H20.0206C22.2799 0 24.1405 0.65313 25.4014 1.8888C26.6653 3.12752 27.3334 4.9558 27.3334 7.176H21.6922V7.22164C20.4271 7.22287 19.2375 7.70413 18.341 8.57808C17.4447 9.45201 16.951 10.6119 16.951 11.844C16.951 14.3928 19.0779 16.4664 21.6922 16.4664H27.3334V16.8816C27.3334 19.076 26.6653 20.8869 25.4014 22.1184C24.1368 23.3493 22.2762 24 20.0206 24ZM6.98379 5.1888C6.42803 5.1888 5.97099 5.62915 5.96499 6.1704C5.96499 6.71888 6.42202 7.17 6.98379 7.176H14.5102C15.072 7.176 15.529 6.73027 15.529 6.1824C15.529 5.63453 15.072 5.1888 14.5102 5.1888H6.98379ZM26.3374 14.478H21.799H21.7594C20.4416 14.478 19.3125 13.6041 19.0138 12.3528C18.8626 11.569 19.0729 10.766 19.591 10.1496C20.1086 9.53352 20.8745 9.17399 21.6922 9.1632H26.3374C26.8866 9.1632 27.3334 9.59869 27.3334 10.134V13.5084C27.3274 14.0371 26.8806 14.472 26.3374 14.478ZM21.8806 10.7232C21.6134 10.7232 21.3624 10.8238 21.1738 11.0064C20.9831 11.1898 20.8738 11.4444 20.8738 11.7048C20.8738 12.2533 21.3314 12.7044 21.8938 12.7104H22.3318C22.8936 12.7104 23.3506 12.2647 23.3506 11.7168C23.3506 11.1689 22.8936 10.7232 22.3318 10.7232H21.8938H21.8806Z" fill="url(#paint0_linear)"/>
<defs>
<linearGradient id="paint0_linear" x1="0.666992" y1="24" x2="27.3334" y2="24" gradientUnits="userSpaceOnUse">
<stop stop-color="#4D165A"/>
<stop offset="0.677811" stop-color="#B5507F"/>
<stop offset="1" stop-color="#DD7F79"/>
</linearGradient>
</defs>
</svg>
