<svg width="32" height="32" viewBox="0 0 32 32" fill="none" xmlns="http://www.w3.org/2000/svg">
<path d="M20.0001 25C22.2093 25 24.0001 23.2091 24.0001 21C24.0001 18.7909 22.2093 17 20.0001 17C17.791 17 16.0001 18.7909 16.0001 21C16.0001 23.2091 17.791 25 20.0001 25Z" fill="#6EC67A"/>
<path d="M14.9339 24.7294C13.4558 24.5307 12.0627 23.9227 10.9119 22.9742C9.76101 22.0258 8.89816 20.7745 8.42071 19.3616C7.94326 17.9488 7.87023 16.4306 8.20984 14.9784C8.54945 13.5262 9.2882 12.1979 10.3427 11.1433C11.3972 10.0887 12.7255 9.34988 14.1776 9.01015C15.6298 8.67043 17.1479 8.74334 18.5608 9.22068C19.9737 9.69801 21.2251 10.5608 22.1737 11.7116C23.1222 12.8623 23.7303 14.2554 23.9292 15.7334" stroke="white" stroke-width="1.5" stroke-linecap="round" stroke-linejoin="round"/>
<path d="M14.0727 24.5658C12.9912 22.9787 12.2673 20.0945 12.2673 16.8C12.2673 13.5055 12.9912 10.622 14.0727 9.03418" stroke="white" stroke-width="1.5" stroke-linecap="round" stroke-linejoin="round"/>
<path d="M8.01849 16.2666H14.9339" stroke="white" stroke-width="1.5" stroke-linecap="round" stroke-linejoin="round"/>
<path d="M9.59998 12H22.4003" stroke="white" stroke-width="1.5" stroke-linecap="round" stroke-linejoin="round"/>
<path d="M8.92371 20.5332H12.5972" stroke="white" stroke-width="1.5" stroke-linecap="round" stroke-linejoin="round"/>
<path d="M17.9283 9.03418C18.85 10.5911 19.4111 12.3347 19.5702 14.137" stroke="white" stroke-width="1.5" stroke-linecap="round" stroke-linejoin="round"/>
</svg>
