<svg width="62" height="62" viewBox="0 0 62 62" fill="none" xmlns="http://www.w3.org/2000/svg">
<g filter="url(#filter0_d)">
<circle cx="31" cy="21" r="21" fill="white"/>
</g>
<mask id="mask0" mask-type="alpha" maskUnits="userSpaceOnUse" x="18" y="6" width="26" height="30">
<rect x="18.8057" y="6.77399" width="24.7165" height="28.4109" fill="black"/>
</mask>
<g mask="url(#mask0)">
<path d="M38.6367 18.1566C39.0557 19.4833 38.4185 20.1704 37.2715 20.6874C36.2858 21.1318 35.3998 21.7933 34.4451 22.3139C34.0359 22.5369 33.9016 22.8036 33.9115 23.2588C33.9416 24.6044 33.8854 25.9524 33.9401 27.2966C33.9662 27.944 33.6949 28.3003 33.1926 28.6223C31.2846 29.8463 31.3125 29.8186 29.2765 28.5959C28.673 28.2336 28.4446 27.8722 28.4717 27.1881C28.523 25.8936 28.4642 24.5954 28.4987 23.2999C28.5122 22.7907 28.3596 22.4975 27.8982 22.2508C26.7646 21.6446 25.6759 20.9563 24.5493 20.3371C23.9136 19.9877 23.6729 19.532 23.6798 18.7824C23.7003 16.503 23.6738 16.5193 25.6624 15.3473C26.1902 15.0364 26.6252 14.985 27.1531 15.3164C28.2439 16.0007 29.3673 16.6331 30.462 17.3115C30.973 17.6278 31.4165 17.6648 31.9509 17.3226C32.9931 16.6551 34.0921 16.0764 35.1361 15.4116C35.7462 15.0228 36.2906 14.9784 36.8695 15.423C36.9849 15.5116 37.1327 15.5567 37.2631 15.6261C38.2795 16.1705 39.1537 16.7963 38.6367 18.1566" fill="#EDA600"/>
<path d="M23.7129 10.9962C25.9998 9.64821 28.1788 8.39091 30.3256 7.08105C30.9328 6.71032 31.4078 6.65084 32.0426 7.03779C34.2153 8.36208 36.4243 9.62718 38.6211 10.9157C38.552 11.0248 38.5351 11.0831 38.497 11.1062C37.6951 11.5917 36.9338 12.343 36.0752 12.4782C35.2602 12.6065 34.522 11.7506 33.7556 11.3183C33.1545 10.9791 32.5413 10.6519 31.9816 10.2515C31.3991 9.83479 30.9181 9.97388 30.3725 10.3128C29.2828 10.9893 28.1598 11.6121 27.0642 12.2794C26.6478 12.5332 26.2981 12.5978 25.858 12.2938C25.2138 11.8495 24.5189 11.4781 23.7129 10.9962" fill="#EDA600"/>
<path d="M26.4259 32.4451C24.9268 31.5946 23.601 30.8496 22.2824 30.0916C21.3376 29.5484 20.4075 28.9794 19.4605 28.4395C19.0751 28.2199 18.9098 27.9369 18.9131 27.48C18.9309 24.8446 18.9215 22.2093 18.9215 19.36C19.7429 19.8308 20.4012 20.2144 21.0663 20.586C21.5061 20.8324 21.6633 21.1854 21.65 21.6937C21.6182 22.8894 21.6849 24.0893 21.6236 25.2826C21.5809 26.1082 21.778 26.6331 22.5901 27.0206C23.7032 27.5518 24.7171 28.2854 25.805 28.8743C26.2613 29.1215 26.4569 29.4036 26.4347 29.9188C26.401 30.7039 26.4259 31.4916 26.4259 32.4451" fill="#EDA600"/>
<path d="M36.1691 32.4309C36.064 32.2302 36.0213 32.1864 36.0207 32.1416C36.0108 31.2478 35.8056 30.2931 36.0538 29.4762C36.3202 28.5999 37.4772 28.5419 38.173 28.0068C38.7555 27.5595 39.4453 27.2488 40.099 26.8982C40.5743 26.6432 40.7996 26.3109 40.7795 25.7323C40.7335 24.4377 40.7927 23.1396 40.7534 21.845C40.7341 21.2241 40.9117 20.8515 41.4921 20.5496C42.102 20.2326 42.6596 19.8096 43.3262 19.551C43.6065 19.8905 43.4743 20.2951 43.477 20.6635C43.4918 22.8569 43.4692 25.0503 43.49 27.2431C43.496 27.8416 43.3626 28.2057 42.7692 28.5368C40.5692 29.7643 38.4238 31.0895 36.1691 32.4309" fill="#EDA600"/>
<path d="M21.6377 18.5427C21.3037 18.3925 21.118 18.3222 20.944 18.2291C18.8915 17.1319 18.6019 16.5395 18.9098 14.2463C18.9555 13.9068 19.1027 13.6788 19.3575 13.525C20.0344 13.1164 20.7256 12.7309 21.4181 12.3491C21.7146 12.1856 21.9781 12.304 22.2482 12.4725C22.9109 12.885 23.5893 13.2732 24.4107 13.7596C23.6915 14.2063 23.1059 14.6413 22.4603 14.9517C21.7831 15.2773 21.5473 15.7304 21.6239 16.464C21.6903 17.1001 21.6377 17.7484 21.6377 18.5427Z" fill="#EDA600"/>
<path d="M40.765 18.5871C40.765 17.6948 40.7424 16.9077 40.7731 16.123C40.7923 15.6309 40.646 15.3377 40.2005 15.0559C39.5843 14.6662 38.8392 14.4637 38.2783 13.7893C38.899 13.073 39.8087 12.7976 40.5643 12.3094C40.6956 12.2249 40.9473 12.3094 41.1384 12.3442C41.2285 12.3604 41.303 12.4506 41.3896 12.4971C43.5842 13.6808 43.574 13.7082 43.5007 16.2858C43.4845 16.8678 43.2793 17.2244 42.8184 17.4818C42.18 17.8387 41.5308 18.1767 40.765 18.5871" fill="#EDA600"/>
<path d="M33.8692 30.8339C33.8905 31.1013 33.9158 31.2927 33.92 31.4849C33.9701 33.9626 33.9689 33.9629 31.7265 35.039C31.6373 35.0817 31.5565 35.1676 31.4658 35.1766C30.432 35.2809 29.8807 34.318 29.0047 34.0494C28.5913 33.9226 28.4594 33.545 28.4783 33.0926C28.5111 32.3042 28.4876 31.5135 28.4876 30.614C29.1311 30.7826 29.6491 31.0388 30.0649 31.4008C30.8715 32.1035 31.6091 31.9488 32.4163 31.4249C32.8174 31.165 33.1674 30.7453 33.8692 30.8339" fill="#EDA600"/>
<path d="M28.6162 13.6497C29.0852 13.3907 29.6109 13.2095 29.9919 12.8673C30.9256 12.0291 31.75 12.3067 32.6149 12.9488C32.9959 13.2315 33.4249 13.4502 33.8112 13.6851C33.7436 14.1267 33.3783 14.149 33.1509 14.286C31.0103 15.5748 30.5825 15.5084 28.6162 13.6497" fill="#EDA600"/>
<path d="M38.6181 22.291C38.649 22.4373 38.6998 22.5773 38.7049 22.7191C38.8064 25.6017 38.7881 25.6285 36.0677 26.8365C36.0425 26.6887 36.0001 26.5457 35.9959 26.4018C35.9118 23.5558 35.9127 23.5558 38.6181 22.291Z" fill="#EDA600"/>
<path d="M23.7597 22.213C26.4894 23.5908 26.49 23.5911 26.4047 26.4683C26.4017 26.5635 26.3617 26.6579 26.3392 26.7531C26.1893 26.8549 26.0781 26.7426 25.9781 26.669C25.2718 26.1489 24.1064 26.0351 23.8294 25.2434C23.5239 24.3704 23.7597 23.3078 23.7597 22.213" fill="#EDA600"/>
</g>
<defs>
<filter id="filter0_d" x="0" y="0" width="62" height="62" filterUnits="userSpaceOnUse" color-interpolation-filters="sRGB">
<feFlood flood-opacity="0" result="BackgroundImageFix"/>
<feColorMatrix in="SourceAlpha" type="matrix" values="0 0 0 0 0 0 0 0 0 0 0 0 0 0 0 0 0 0 127 0"/>
<feOffset dy="10"/>
<feGaussianBlur stdDeviation="5"/>
<feColorMatrix type="matrix" values="0 0 0 0 0.541176 0 0 0 0 0.603922 0 0 0 0 0.72549 0 0 0 0.101961 0"/>
<feBlend mode="normal" in2="BackgroundImageFix" result="effect1_dropShadow"/>
<feBlend mode="normal" in="SourceGraphic" in2="effect1_dropShadow" result="shape"/>
</filter>
</defs>
</svg>
