<svg width="42" height="42" viewBox="0 0 42 42" fill="none" xmlns="http://www.w3.org/2000/svg">
<g clip-path="url(#clip0)">
<g filter="url(#filter0_d)">
<circle cx="21" cy="21" r="21" fill="white"/>
</g>
<g clip-path="url(#clip1)">
<mask id="mask0" mask-type="alpha" maskUnits="userSpaceOnUse" x="11" y="9" width="20" height="23">
<rect x="11" y="9.99963" width="20" height="22" fill="black"/>
</mask>
<g mask="url(#mask0)">
<path d="M17.3199 10.9937V13.7309C16.292 14.0399 15.2554 14.3309 14.2379 14.6735C14.027 14.7445 13.7433 15.0022 13.7365 15.1822C13.6917 16.3791 13.7134 17.5782 13.7134 18.8554H17.3035V30.616C12.7085 28.7207 10.5363 25.9995 11.0865 22.793H13.7036C13.7293 23.8522 13.545 24.9908 14.6479 25.8213V21.4963H11.0919C11.0573 21.2762 11.0123 21.122 11.012 20.9676C11.0084 18.4942 11.0236 16.0204 11.0001 13.5473C10.995 13.0222 11.1808 12.7738 11.7079 12.6274C13.5536 12.1146 15.3866 11.5604 17.3199 10.9937" fill="#161615"/>
<path fill-rule="evenodd" clip-rule="evenodd" d="M24.5459 10.9257C26.5738 11.5235 28.5013 12.1026 30.4371 12.6539C30.8601 12.7743 30.9863 12.9807 30.9834 13.3914C30.9654 15.8887 30.9622 18.3863 30.9838 20.8835C30.9882 21.3792 30.8174 21.5173 30.3151 21.4996C29.3063 21.464 28.295 21.489 27.1854 21.489C27.1854 22.5453 27.1591 23.5552 27.1968 24.5628C27.2148 25.0454 27.0925 25.4133 26.6855 25.6999C26.0143 26.1724 25.3503 26.6545 24.5459 27.2311L24.5459 10.9257ZM28.3174 18.851C28.3174 17.7166 28.3187 16.6583 28.3169 15.6002C28.3155 14.6546 28.3075 14.6482 27.2371 14.5848V18.851H28.3174Z" fill="#161615"/>
<path d="M23.7079 13.4183C22.7437 13.1466 21.8743 12.9015 20.9244 12.6337V18.8567H23.6651V21.4687H20.8686V31.9996C19.9854 31.6521 19.2026 31.3813 18.4647 31.0253C18.298 30.9447 18.2153 30.5677 18.2147 30.3269C18.1999 25.4479 18.2024 20.569 18.2019 15.69C18.2017 14.21 18.2155 12.7301 18.1945 11.2504C18.1892 10.8685 18.2871 10.6596 18.6984 10.5585C19.3737 10.3925 20.0246 10.0705 20.7052 10.0081C21.268 9.95647 21.8679 10.1519 22.4353 10.2956C23.7118 10.6192 23.7078 10.6338 23.7079 11.8822L23.7079 13.4183Z" fill="#161615"/>
<path d="M21.6811 31.9951C21.6811 31.1408 21.6467 30.4006 21.7041 29.6671C21.7195 29.4728 21.9817 29.2372 22.1914 29.1257C23.5552 28.4006 24.9857 27.779 26.2975 26.978C27.6339 26.1617 28.55 25.0237 28.3248 23.3501C28.3012 23.1752 28.3418 22.9925 28.3545 22.7766H30.9025C31.2292 24.7729 30.7475 26.4994 29.2641 27.9373C27.4433 29.7024 25.1898 30.7721 22.8067 31.6334C22.4748 31.7534 22.1339 31.8504 21.6811 31.9951" fill="#161615"/>
</g>
</g>
</g>
<defs>
<filter id="filter0_d" x="-10" y="0" width="62" height="62" filterUnits="userSpaceOnUse" color-interpolation-filters="sRGB">
<feFlood flood-opacity="0" result="BackgroundImageFix"/>
<feColorMatrix in="SourceAlpha" type="matrix" values="0 0 0 0 0 0 0 0 0 0 0 0 0 0 0 0 0 0 127 0"/>
<feOffset dy="10"/>
<feGaussianBlur stdDeviation="5"/>
<feColorMatrix type="matrix" values="0 0 0 0 0.541176 0 0 0 0 0.603922 0 0 0 0 0.72549 0 0 0 0.101961 0"/>
<feBlend mode="normal" in2="BackgroundImageFix" result="effect1_dropShadow"/>
<feBlend mode="normal" in="SourceGraphic" in2="effect1_dropShadow" result="shape"/>
</filter>
<clipPath id="clip0">
<rect width="42" height="42" fill="white"/>
</clipPath>
<clipPath id="clip1">
<rect width="20" height="22" fill="white" transform="translate(11 9.99963)"/>
</clipPath>
</defs>
</svg>
