<svg width="588" height="385" viewBox="0 0 588 385" fill="none" xmlns="http://www.w3.org/2000/svg">
<mask id="mask0" mask-type="alpha" maskUnits="userSpaceOnUse" x="0" y="0" width="588" height="319">
<rect width="588" height="319" rx="24" fill="black"/>
</mask>
<g mask="url(#mask0)">
</g>
<g clip-path="url(#clip0)">
<path fill-rule="evenodd" clip-rule="evenodd" d="M291.482 56.0208C288.138 56.0208 284.915 54.5128 283.238 51.7709C282.895 51.2111 283.071 50.4773 283.633 50.1343C284.19 49.7912 284.927 49.9675 285.272 50.5297C287.404 54.0149 292.64 54.4032 295.899 52.4212C299.179 50.4249 301.331 46.3894 301.655 41.625C301.95 37.2727 300.833 32.8918 299.561 28.4132L299.537 28.3298C297.917 28.9254 296.183 29.2803 294.353 29.3375C291.375 29.4232 288.7 28.6228 286.849 27.0696C284.51 25.1043 283.578 21.8335 284.636 19.2916C285.343 17.5907 286.816 16.3687 288.781 15.8517C291.266 15.1942 294.162 15.7731 296.164 17.3263C298.62 19.2345 299.992 22.0264 300.995 24.9756C306.783 21.5786 310.535 14.3866 310.655 7.85935C310.843 -2.5081 304.437 -11.6987 299.027 -17.5804C298.581 -18.064 298.615 -18.8168 299.098 -19.2623C299.582 -19.7078 300.335 -19.6768 300.78 -19.1932C306.483 -12.9899 313.239 -3.25373 313.037 7.9046C312.899 15.5134 308.561 23.6582 301.731 27.3388C301.771 27.4793 301.809 27.6199 301.852 27.7604C303.184 32.451 304.351 37.0511 304.032 41.7846C303.653 47.3232 301.078 52.0591 297.138 54.4556C295.394 55.5157 293.417 56.0207 291.482 56.0207L291.482 56.0208ZM290.885 17.9671C290.375 17.9671 289.867 18.029 289.388 18.1553C288.517 18.384 287.368 18.9271 286.835 20.2064C286.177 21.7858 286.842 23.9536 288.381 25.2448C289.784 26.424 291.871 27.0338 294.282 26.9552C295.882 26.9052 297.407 26.5788 298.836 26.0238C297.931 23.2771 296.771 20.8162 294.703 19.2082C293.674 18.4078 292.259 17.9671 290.885 17.9671H290.885Z" fill="#006FFF"/>
<path fill-rule="evenodd" clip-rule="evenodd" d="M427.19 24.4205C426.811 24.4205 426.44 24.2394 426.209 23.9035C425.835 23.3628 425.97 22.6219 426.514 22.2479C430.046 19.8133 432.136 14.9345 431.833 9.81983C431.695 7.5043 431.142 5.12208 430.13 2.56595C427.936 3.38545 425.506 3.73085 423.059 3.51646C418.819 3.15437 415.179 1.13423 413.075 -2.0246C411.525 -4.34964 411.074 -6.8748 411.837 -8.95687C412.387 -10.4553 413.576 -11.6678 415.181 -12.3706C417.156 -13.2353 419.622 -13.2568 421.618 -12.4206C424.958 -11.0294 427.154 -7.96823 428.862 -5.16198C429.815 -3.59449 430.632 -2.09368 431.326 -0.642899C432.262 -1.19321 433.11 -1.85546 433.834 -2.61777C438.639 -7.69192 439.135 -16.5252 434.985 -23.1668C431.314 -29.0509 424.467 -33.2675 416.206 -34.7325C415.558 -34.8493 415.126 -35.4663 415.241 -36.1142C415.355 -36.7622 415.958 -37.1981 416.62 -37.079C425.546 -35.4948 432.976 -30.8829 437.007 -24.427C441.71 -16.8968 441.088 -6.81526 435.564 -0.981186C434.615 0.0217438 433.51 0.872196 432.293 1.56067C433.434 4.40504 434.056 7.06836 434.21 9.67928C434.568 15.6992 432.136 21.2664 427.864 24.2085C427.659 24.3514 427.424 24.4205 427.19 24.4205H427.19ZM418.459 -10.6554C417.654 -10.6554 416.849 -10.5006 416.134 -10.1885C415.424 -9.87642 414.488 -9.26895 414.074 -8.13501C413.583 -6.79858 413.95 -5.00715 415.057 -3.34674C416.758 -0.792988 419.748 0.841221 423.262 1.14137C425.287 1.31528 427.321 1.0318 429.165 0.364773C428.512 -1.005 427.733 -2.42957 426.826 -3.92323C425.318 -6.40551 423.412 -9.09265 420.701 -10.2218C420.008 -10.5125 419.233 -10.6554 418.459 -10.6554L418.459 -10.6554Z" fill="#FF2A57"/>
<path fill-rule="evenodd" clip-rule="evenodd" d="M97.8167 120.847C97.3092 120.847 96.8423 120.525 96.6803 120.018C96.4826 119.391 96.828 118.72 97.4546 118.522C103.913 116.473 108.784 110.32 109.301 103.566C109.378 102.582 109.359 101.601 109.256 100.629C103.038 102.33 96.1086 100.748 91.7015 96.2362C89.3407 93.8207 87.7041 89.9829 89.3693 86.8551C91.4108 83.0268 96.8471 82.8243 100.928 84.8492C105.933 87.3291 109.632 92.0817 111.071 97.4393C111.591 97.201 112.1 96.9319 112.594 96.6341C118.461 93.0917 121.908 85.8402 121.174 78.5935C120.391 70.8632 115.602 64.5503 110.535 57.8658C105.618 51.3814 100.535 44.6778 99.4532 36.5425C98.2359 27.4019 102.915 17.7181 110.833 12.9942C111.402 12.6559 112.131 12.8417 112.467 13.4063C112.803 13.9709 112.62 14.7023 112.055 15.0381C104.93 19.2904 100.718 28.0046 101.814 36.228C102.815 43.7392 107.486 49.902 112.434 56.4269C117.477 63.0781 122.692 69.958 123.545 78.3529C124.369 86.4954 120.464 94.664 113.828 98.6733C113.094 99.1164 112.334 99.5023 111.555 99.831C111.734 101.125 111.776 102.437 111.676 103.747C111.088 111.447 105.535 118.458 98.1764 120.792C98.0572 120.83 97.9334 120.847 97.8167 120.847L97.8167 120.847ZM95.625 85.957C93.8312 85.957 92.2256 86.5644 91.4728 87.9771C90.3722 90.0401 91.6515 92.7749 93.4048 94.5711C97.1925 98.447 103.393 99.7906 108.83 98.2588C107.612 93.4658 104.332 89.1944 99.8701 86.9837C98.5528 86.331 97.0329 85.957 95.625 85.957L95.625 85.957Z" fill="#0EC9B5"/>
<path d="M592.049 257.094C591.701 257.094 591.349 257.075 590.994 257.035C590.341 256.961 589.872 256.37 589.948 255.715C590.022 255.062 590.615 254.583 591.266 254.669C596.023 255.212 600.127 250.812 600.985 246.362C601.793 242.169 600.606 237.393 597.452 232.166C596.213 230.113 594.772 228.112 593.379 226.178C591.73 223.891 590.027 221.525 588.6 219.002C586.327 214.986 583.971 208.935 585.662 202.929C587.683 195.742 595.561 190.973 602.869 192.507C603.512 192.641 603.925 193.272 603.791 193.917C603.655 194.561 603.027 194.968 602.378 194.837C596.363 193.57 589.619 197.655 587.957 203.575C586.487 208.792 588.624 214.204 590.672 217.83C592.035 220.239 593.7 222.549 595.311 224.784C596.733 226.759 598.203 228.798 599.494 230.935C602.96 236.681 604.246 242.024 603.322 246.812C602.324 251.989 597.65 257.094 592.049 257.094Z" fill="#FF41AA"/>
<path fill-rule="evenodd" clip-rule="evenodd" d="M14.0128 294.397C13.9294 294.397 13.8437 294.388 13.7555 294.371C13.1123 294.228 12.7073 293.594 12.8503 292.951C13.7246 288.98 11.3066 285.009 8.96725 281.171C6.47306 277.074 3.94553 271.866 6.04188 267.076C6.35395 266.361 6.75178 265.713 7.20202 265.122C3.03789 257.947 4.16231 248.132 8.72188 241.686C14.0819 234.101 23.6822 229.398 35.055 228.779C35.6982 228.707 36.2747 229.246 36.308 229.903C36.3438 230.561 35.8411 231.121 35.186 231.156C24.6971 231.728 15.5327 236.178 10.6658 243.06C6.80419 248.52 5.72505 257.008 8.95058 263.302C10.2108 262.232 11.5901 261.444 12.7288 260.853C14.5845 259.895 17.0787 258.769 19.7897 258.843C22.7317 258.883 25.3665 260.389 26.5076 262.673C27.2985 264.262 27.3175 266.132 26.5576 267.94C25.6809 270.02 23.8585 271.726 21.7979 272.39C18.4795 273.458 14.5083 272.488 11.1851 269.789C10.2251 269.012 9.37938 268.152 8.64089 267.228C8.48366 267.49 8.3455 267.757 8.224 268.028C6.56835 271.816 8.80764 276.328 10.9445 279.837C13.4649 283.975 16.2569 288.556 15.1753 293.463C15.0538 294.018 14.5607 294.397 14.0128 294.397L14.0128 294.397ZM10.2227 265.358C10.9207 266.304 11.7378 267.171 12.6859 267.94C14.768 269.632 18.0626 271.094 21.0666 270.122C22.4864 269.665 23.7466 268.474 24.3612 267.016C24.8471 265.858 24.8519 264.693 24.3755 263.736C23.5274 262.035 21.443 261.249 19.7563 261.225C17.5838 261.146 15.4302 262.137 13.8222 262.971C12.3333 263.74 11.1446 264.524 10.2227 265.358V265.358Z" fill="#FFAF00"/>
<path d="M594.675 306.48C594.737 304.298 594.601 301.921 593.179 299.834C591.416 299.36 590.246 298.938 588.622 297.976C588.965 299.56 588.419 300.537 586.749 302.123C589.427 302.897 591.661 304.408 594.675 306.48V306.48Z" fill="white"/>
<path d="M34.3684 87.8725C34.3613 87.0697 34.2279 86.5933 33.7395 85.8262C32.9462 86.4384 32.3697 86.6457 31.6694 86.6981C31.6193 87.4509 31.7123 87.9654 31.9505 88.7396C32.7295 88.2703 33.3631 88.0702 34.3684 87.8725H34.3684Z" fill="white"/>
<path d="M49.3663 382.933C48.835 381.799 48.8707 381.008 49.1042 379.846C47.1198 380.351 45.195 381.082 44.4541 381.678C44.6637 382.638 45.0616 383.393 45.75 384.358C46.5767 383.674 47.6106 383.374 49.3663 382.933Z" fill="white"/>
<path d="M560.536 371.076C561.679 369.063 562.075 367.834 561.555 365.397C557.853 364.311 555.726 363.408 552.391 361.626C552.203 363.003 551.776 363.918 551.267 364.611C555.157 366.536 557.298 368.213 560.536 371.076Z" fill="white"/>
<path d="M584.185 146.752C582.025 145.871 580.424 145.995 578.204 147.269C577.804 149.702 577.849 151.507 578.714 153.189C581.329 153.43 582.99 154.337 585.672 156.15C584.583 152.682 584.016 150.502 584.186 146.752H584.185Z" fill="white"/>
<path d="M580.016 100.23C582.163 102.131 584.612 102.419 588.53 101.909C588.437 95.668 589.097 91.9851 591.329 86.475C588.449 86.6918 586.448 85.9152 582.796 83.6426C580.576 89.2694 579.995 93.9814 580.016 100.23Z" fill="#FFAF00"/>
<path d="M-1.0458 216.732C-1.92484 218.497 -1.67709 220.177 -0.638441 222.693C3.49472 221.516 6.06037 221.292 10.1244 221.79C9.46457 219.915 9.6218 218.445 10.4794 215.608C6.34147 215.141 3.10403 215.598 -1.04581 216.732H-1.0458Z" fill="#FF2A57"/>
<path d="M535.836 9.37485C540.048 10.3015 542.454 10.3325 546.504 8.0694C546.401 0.882229 546.844 -3.39863 548.181 -10.3166C545.627 -9.89733 543.766 -10.1498 542.251 -10.6787C540.962 -2.69826 539.154 2.03761 535.836 9.37485Z" fill="#FF2A57"/>
<path d="M372.065 24.4381C368.701 24.3428 365.035 24.5548 361.821 26.7441C361.088 29.4622 360.44 31.2655 358.958 33.7692C361.395 33.238 362.903 34.0789 365.347 36.6541C366.543 32.5281 368.87 29.0834 372.065 24.4381H372.065Z" fill="#0EC9B5"/>
<path d="M104.861 149.051C104.783 150.809 105.276 151.914 106.743 153.167C108.568 152.834 109.838 152.345 110.815 151.309C110.324 149.389 110.548 147.981 111.155 145.62C108.968 147.269 107.568 148.224 104.861 149.051Z" fill="#0EC9B5"/>
<path d="M24.5489 331.594C24.3488 329.183 23.4864 327.764 21.2662 326.311C18.8364 327.082 17.1902 327.971 16.042 329.555C17.0449 332.087 16.9854 334.046 16.5685 337.369C19.2628 334.741 21.0065 333.195 24.5489 331.594Z" fill="#FF0E41"/>
<path d="M521.114 255.701C522.455 253.733 523.072 252.373 523.634 250.458C522.086 250.112 521.054 250.172 520.096 250.451C520.027 251.687 519.513 252.499 518.607 253.688C519.915 254.086 520.487 254.615 521.114 255.701Z" fill="#FF2A57"/>
<path d="M478.337 -2.47852C476.452 1.43309 475.342 4.76105 475.623 8.37728C478.151 9.77803 480.007 10.1425 482.232 9.89713C482.251 5.50431 482.894 3.03633 484.993 -0.765696C482.02 -0.427406 480.226 -0.675166 478.337 -2.47851L478.337 -2.47852Z" fill="#0EC9B5"/>
<path d="M564.075 348.871C563.567 351.146 563.169 352.287 561.85 353.759C562.662 354.205 563.1 354.603 563.267 355.179C564.799 353.683 565.463 352.332 566.216 349.965C565.573 349.379 564.875 349.059 564.075 348.871V348.871Z" fill="#00D339"/>
<path d="M585.36 159.495C586.74 159.314 587.993 159.512 589.496 160.655C591.142 156.334 591.645 153.382 592.121 148.994C589.782 147.667 588.2 147.491 587.061 147.481C587.612 152.177 586.894 155.131 585.36 159.495Z" fill="#FF0E41"/>
<path d="M333.667 1.31739C332.173 1.45079 330.56 1.73666 329.255 2.87535C329.074 4.11649 328.881 4.94789 328.354 6.13424C329.407 5.77213 330.117 6.06278 331.335 7.07522C331.647 5.18611 332.495 3.53998 333.667 1.31738L333.667 1.31739Z" fill="#008DF0"/>
<path d="M-0.326109 63.4463C0.145571 61.6715 0.493371 60.7901 1.57729 59.6704C0.950771 59.2965 0.622021 58.9701 0.507671 58.5127C-0.742999 59.6395 -1.30758 60.6805 -1.97461 62.5172C-1.48625 63.0008 -0.950249 63.2724 -0.326109 63.4463V63.4463Z" fill="#FFAF00"/>
<path d="M124.121 50.7486C125.198 51.1964 126.091 50.982 127.539 50.5866C126.551 47.4587 126.436 43.8401 126.691 39.6427C125.51 39.9071 124.716 39.7832 123.466 39.3115C122.93 43.7377 123.018 46.2605 124.121 50.7486Z" fill="#FF2A57"/>
<path d="M422.207 50.7029C419.102 48.9424 417.211 48.3349 413.454 49.133C411.782 54.8384 410.388 58.1163 407.642 63.2572C409.764 63.5478 411.174 64.2053 412.242 64.9914C415.208 58.9978 417.792 55.6936 422.206 50.7029H422.207Z" fill="#006FFF"/>
<path d="M14.2551 109.293C11.0819 111.427 8.75688 113.467 7.36328 116.337C8.65921 118.529 9.90511 119.632 11.7085 120.435C13.6762 117.102 15.2627 115.515 18.5526 113.557C16.1394 112.495 14.8887 111.506 14.2551 109.293H14.2551Z" fill="#FFAF00"/>
<path d="M548.721 291.866C552.743 290.451 554.915 288.964 557.936 285.184C553.493 282.237 551.463 279.688 549.989 276.26C546.118 277.301 543.69 278.649 540.2 281.177C543.905 284.302 545.994 287.142 548.721 291.866L548.721 291.866Z" fill="#0EC9B5"/>
<path d="M540.877 171.46C541.365 174.793 540.662 176.801 539.164 179.61C544.657 179.843 550.184 179.448 552.545 178.488C552.752 175.858 552.312 173.609 551.282 170.586C548.624 171.713 545.737 171.684 540.877 171.46Z" fill="#0EC9B5"/>
<path d="M187.311 11.0348C185.953 14.3676 186.143 16.8332 188.106 20.2541C191.853 20.8711 194.636 20.802 197.228 19.4679C197.602 15.4348 199 12.8763 201.792 8.74316C196.446 10.4202 193.09 11.2969 187.311 11.0349L187.311 11.0348Z" fill="#FF2A57"/>
<path d="M59.4887 30.8713C60.4201 24.9968 61.2492 22.0357 64.3723 18.0717C62.233 17.0711 61.0586 16.1278 60.5416 14.6865C56.8778 18.7387 55.4032 22.281 53.8643 28.4272C55.5961 29.8208 57.4233 30.5212 59.4887 30.8713H59.4887Z" fill="#006FFF"/>
<path d="M15.4965 367.829C14.2554 369.38 12.8546 370.478 10.7178 371.631C14.8247 374.521 17.4214 376.667 19.8893 379.585C22.4502 378.968 23.5603 378.006 24.8706 376.436C23.1744 374.221 19.744 371.036 15.4965 367.829H15.4965Z" fill="#008DF0"/>
<path d="M578.82 236.557C578.441 234.79 577.934 233.794 576.507 232.319C575.025 234.03 573.844 234.744 572.321 235.18C572.55 236.865 572.986 237.958 573.863 239.564C575.375 238.175 576.683 237.448 578.82 236.557Z" fill="#0EC9B5"/>
<path d="M545.879 122.753C542.82 119.885 540.829 118.667 536.321 118.546C532.839 124.599 530.342 127.953 525.792 133.068C528.131 133.983 529.561 135.121 530.564 136.317C535.602 130.288 539.464 127.234 545.879 122.753Z" fill="#FFAF00"/>
<path d="M459.98 41.4206C462.62 42.8165 465.622 44.0887 469.04 43.6051C470.689 41.7255 471.911 40.5439 474.074 39.1336C471.923 38.5976 471.053 37.3398 470.117 34.3311C467.546 37.1445 464.345 38.9788 459.98 41.4206V41.4206Z" fill="#006FFF"/>
<path d="M48.2218 176.388C49.7226 173.982 50.392 172.334 50.9685 170.025C49.108 169.69 47.8835 169.811 46.7567 170.19C46.7353 171.662 46.1636 172.655 45.1416 174.116C46.7186 174.523 47.4238 175.128 48.2218 176.388Z" fill="#FFAF00"/>
<path d="M569.473 227.848C569.09 229.723 569.161 230.904 569.921 232.939C572.08 231.905 573.528 231.712 575.188 231.933C575.679 230.204 575.72 228.96 575.55 227.033C573.495 227.738 571.92 227.888 569.473 227.848H569.473Z" fill="#008DF0"/>
</g>
<defs>
<clipPath id="clip0">
<rect width="636.415" height="465.663" fill="white" transform="translate(-32.5986 -81.3057)"/>
</clipPath>
</defs>
</svg>
